Nobile-Light.ufo
<glyph name="quotedbl" format="1">
  <advance width="483"/>
  <unicode hex="0022"/>
  <outline>
    <contour>
      <point x="87" y="1048" type="line"/>
      <point x="157" y="1048" type="line"/>
      <point x="180" y="1426" type="line"/>
      <point x="181" y="1435"/>
      <point x="180" y="1491"/>
      <point x="180" y="1501" type="curve"/>
      <point x="55" y="1501" type="line"/>
      <point x="55" y="1491"/>
      <point x="54" y="1434"/>
      <point x="55" y="1425" type="curve"/>
    </contour>
    <contour>
      <point x="338" y="1048" type="line"/>
      <point x="408" y="1048" type="line"/>
      <point x="436" y="1426" type="line"/>
      <point x="437" y="1435"/>
      <point x="436" y="1491"/>
      <point x="436" y="1501" type="curve"/>
      <point x="316" y="1501" type="line"/>
      <point x="316" y="1491"/>
      <point x="315" y="1434"/>
      <point x="316" y="1425" type="curve"/>
    </contour>
  </outline>
</glyph>
<glyph name="dollar" format="1">
  <advance width="916"/>
  <unicode hex="0024"/>
  <outline>
    <contour>
      <point x="365" y="-174" type="line"/>
      <point x="435" y="-174" type="line"/>
      <point x="574" y="1528" type="line"/>
      <point x="504" y="1528" type="line"/>
    </contour>
    <component base="s" yOffset="106"/>
  </outline>
</glyph>
<glyph name="percent" format="1">
  <advance width="1755"/>
  <unicode hex="0025"/>
  <outline>
    <contour>
      <point x="427" y="842" type="curve" smooth="yes"/>
      <point x="312" y="842"/>
      <point x="240" y="952"/>
      <point x="240" y="1129" type="curve" smooth="yes"/>
      <point x="240" y="1315"/>
      <point x="312" y="1432"/>
      <point x="427" y="1432" type="curve" smooth="yes"/>
      <point x="541" y="1432"/>
      <point x="614" y="1315"/>
      <point x="614" y="1129" type="curve" smooth="yes"/>
      <point x="614" y="952"/>
      <point x="541" y="842"/>
    </contour>
    <contour>
      <point x="427" y="751" type="curve" smooth="yes"/>
      <point x="608" y="751"/>
      <point x="721" y="897"/>
      <point x="721" y="1130" type="curve" smooth="yes"/>
      <point x="721" y="1368"/>
      <point x="608" y="1517"/>
      <point x="427" y="1517" type="curve" smooth="yes"/>
      <point x="246" y="1517"/>
      <point x="132" y="1368"/>
      <point x="132" y="1130" type="curve" smooth="yes"/>
      <point x="132" y="897"/>
      <point x="246" y="751"/>
    </contour>
    <contour>
      <point x="486" y="-40" type="line"/>
      <point x="1399" y="1497" type="line"/>
      <point x="1314" y="1538" type="line"/>
      <point x="399" y="-3" type="line"/>
    </contour>
    <contour>
      <point x="1358" y="75" type="curve" smooth="yes"/>
      <point x="1243" y="75"/>
      <point x="1171" y="185"/>
      <point x="1171" y="362" type="curve" smooth="yes"/>
      <point x="1171" y="548"/>
      <point x="1243" y="664"/>
      <point x="1358" y="664" type="curve" smooth="yes"/>
      <point x="1472" y="664"/>
      <point x="1544" y="548"/>
      <point x="1544" y="362" type="curve" smooth="yes"/>
      <point x="1544" y="185"/>
      <point x="1472" y="75"/>
    </contour>
    <contour>
      <point x="1358" y="-17" type="curve" smooth="yes"/>
      <point x="1538" y="-17"/>
      <point x="1652" y="130"/>
      <point x="1652" y="362" type="curve" smooth="yes"/>
      <point x="1652" y="600"/>
      <point x="1538" y="749"/>
      <point x="1358" y="749" type="curve" smooth="yes"/>
      <point x="1177" y="749"/>
      <point x="1063" y="600"/>
      <point x="1063" y="362" type="curve" smooth="yes"/>
      <point x="1063" y="130"/>
      <point x="1177" y="-17"/>
    </contour>
  </outline>
</glyph>
<glyph name="ampersand" format="1">
  <advance width="1574"/>
  <unicode hex="0026"/>
  <outline>
    <contour>
      <point x="642" y="846" type="line"/>
      <point x="868" y="919"/>
      <point x="1053" y="1006"/>
      <point x="1056" y="1200" type="curve" smooth="yes"/>
      <point x="1061" y="1447"/>
      <point x="856" y="1519"/>
      <point x="641" y="1519" type="curve" smooth="yes"/>
      <point x="407" y="1519"/>
      <point x="239" y="1437"/>
      <point x="239" y="1193" type="curve" smooth="yes"/>
      <point x="239" y="1062"/>
      <point x="337" y="965"/>
      <point x="460" y="875" type="curve"/>
      <point x="217" y="794"/>
      <point x="116" y="635"/>
      <point x="116" y="417" type="curve" smooth="yes"/>
      <point x="116" y="71"/>
      <point x="399" y="-17"/>
      <point x="684" y="-17" type="curve" smooth="yes"/>
      <point x="993" y="-17"/>
      <point x="1186" y="30"/>
      <point x="1281" y="226" type="curve"/>
      <point x="1520" y="38" type="line"/>
      <point x="1571" y="115" type="line"/>
      <point x="1322" y="312" type="line"/>
      <point x="1368" y="451"/>
      <point x="1378" y="633"/>
      <point x="1378" y="833" type="curve"/>
      <point x="1267" y="832" type="line"/>
      <point x="1267" y="641"/>
      <point x="1269" y="513"/>
      <point x="1233" y="375" type="curve"/>
    </contour>
    <contour>
      <point x="681" y="88" type="curve" smooth="yes"/>
      <point x="490" y="88"/>
      <point x="247" y="135"/>
      <point x="247" y="425" type="curve" smooth="yes"/>
      <point x="247" y="616"/>
      <point x="335" y="748"/>
      <point x="535" y="812" type="curve"/>
      <point x="1195" y="283" type="line"/>
      <point x="1104" y="110"/>
      <point x="964" y="88"/>
    </contour>
    <contour>
      <point x="566" y="915" type="curve"/>
      <point x="456" y="987"/>
      <point x="363" y="1080"/>
      <point x="363" y="1197" type="curve" smooth="yes"/>
      <point x="363" y="1385"/>
      <point x="496" y="1422"/>
      <point x="641" y="1422" type="curve" smooth="yes"/>
      <point x="796" y="1422"/>
      <point x="943" y="1374"/>
      <point x="938" y="1201" type="curve" smooth="yes"/>
      <point x="934" y="1049"/>
      <point x="768" y="980"/>
    </contour>
  </outline>
</glyph>
<glyph name="quotesingle" format="1">
  <advance width="390"/>
  <unicode hex="0027"/>
  <outline>
    <contour>
      <point x="162" y="1048" type="line"/>
      <point x="232" y="1048" type="line"/>
      <point x="260" y="1426" type="line"/>
      <point x="261" y="1435"/>
      <point x="260" y="1491"/>
      <point x="260" y="1501" type="curve"/>
      <point x="130" y="1501" type="line"/>
      <point x="130" y="1491"/>
      <point x="129" y="1434"/>
      <point x="130" y="1425" type="curve"/>
    </contour>
  </outline>
</glyph>
<glyph name="parenleft" format="1">
  <advance width="684"/>
  <unicode hex="0028"/>
  <outline>
    <contour>
      <point x="506" y="-155" type="curve"/>
      <point x="565" y="-85" type="line"/>
      <point x="399" y="76"/>
      <point x="316" y="401"/>
      <point x="316" y="733" type="curve" smooth="yes"/>
      <point x="316" y="1059"/>
      <point x="401" y="1393"/>
      <point x="572" y="1564" type="curve"/>
      <point x="500" y="1631" type="line"/>
      <point x="284" y="1450"/>
      <point x="176" y="1092"/>
      <point x="176" y="733" type="curve" smooth="yes"/>
      <point x="176" y="378"/>
      <point x="286" y="22"/>
    </contour>
  </outline>
</glyph>
<glyph name="parenright" format="1">
  <advance width="684"/>
  <unicode hex="0029"/>
  <outline>
    <contour>
      <point x="179" y="-155" type="line"/>
      <point x="399" y="22"/>
      <point x="508" y="378"/>
      <point x="508" y="733" type="curve" smooth="yes"/>
      <point x="508" y="1092"/>
      <point x="400" y="1450"/>
      <point x="184" y="1631" type="curve"/>
      <point x="113" y="1564" type="line"/>
      <point x="284" y="1393"/>
      <point x="369" y="1059"/>
      <point x="369" y="733" type="curve" smooth="yes"/>
      <point x="369" y="401"/>
      <point x="286" y="76"/>
      <point x="120" y="-85" type="curve"/>
    </contour>
  </outline>
</glyph>
<glyph name="asterisk" format="1">
  <advance width="912"/>
  <unicode hex="002A"/>
  <outline>
    <contour>
      <point x="298" y="771" type="line"/>
      <point x="450" y="1042" type="line"/>
      <point x="601" y="771" type="line"/>
      <point x="677" y="812" type="line"/>
      <point x="506" y="1075" type="line"/>
      <point x="801" y="1070" type="line"/>
      <point x="801" y="1148" type="line"/>
      <point x="505" y="1141" type="line"/>
      <point x="668" y="1406" type="line"/>
      <point x="594" y="1445" type="line"/>
      <point x="450" y="1169" type="line"/>
      <point x="305" y="1445" type="line"/>
      <point x="231" y="1406" type="line"/>
      <point x="393" y="1141" type="line"/>
      <point x="98" y="1148" type="line"/>
      <point x="98" y="1070" type="line"/>
      <point x="392" y="1075" type="line"/>
      <point x="223" y="812" type="line"/>
    </contour>
  </outline>
</glyph>
<glyph name="plus" format="1">
  <advance width="954"/>
  <unicode hex="002B"/>
  <outline>
    <contour>
      <point x="427" y="183" type="line"/>
      <point x="521" y="183" type="line"/>
      <point x="521" y="503" type="line"/>
      <point x="824" y="503" type="line"/>
      <point x="824" y="597" type="line"/>
      <point x="521" y="597" type="line"/>
      <point x="521" y="917" type="line"/>
      <point x="427" y="917" type="line"/>
      <point x="427" y="597" type="line"/>
      <point x="124" y="597" type="line"/>
      <point x="124" y="503" type="line"/>
      <point x="427" y="503" type="line"/>
    </contour>
  </outline>
</glyph>
<glyph name="comma" format="1">
  <advance width="526"/>
  <unicode hex="002C"/>
  <outline>
    <contour>
      <point x="191" y="-237" type="line"/>
      <point x="313" y="-202"/>
      <point x="354" y="-104"/>
      <point x="354" y="11" type="curve" smooth="yes"/>
      <point x="354" y="18"/>
      <point x="354" y="142"/>
      <point x="354" y="239" type="curve"/>
      <point x="182" y="239" type="line"/>
      <point x="182" y="15" type="line"/>
      <point x="264" y="15" type="line"/>
      <point x="265" y="-99"/>
      <point x="245" y="-155"/>
      <point x="166" y="-184" type="curve"/>
    </contour>
  </outline>
</glyph>
<glyph name="hyphen" format="1">
  <advance width="846"/>
  <unicode hex="002D"/>
  <outline>
    <contour>
      <point x="122" y="460" type="line"/>
      <point x="725" y="460" type="line"/>
      <point x="725" y="570" type="line"/>
      <point x="122" y="570" type="line"/>
    </contour>
  </outline>
</glyph>
<glyph name="period" format="1">
  <advance width="489"/>
  <unicode hex="002E"/>
  <outline>
    <contour>
      <point x="244" y="-20" type="curve" smooth="yes"/>
      <point x="293" y="-20"/>
      <point x="322" y="21"/>
      <point x="322" y="67" type="curve" smooth="yes"/>
      <point x="322" y="113"/>
      <point x="293" y="154"/>
      <point x="244" y="154" type="curve" smooth="yes"/>
      <point x="197" y="154"/>
      <point x="160" y="113"/>
      <point x="160" y="67" type="curve" smooth="yes"/>
      <point x="160" y="20"/>
      <point x="196" y="-20"/>
    </contour>
  </outline>
</glyph>
<glyph name="one" format="1">
  <advance width="991"/>
  <unicode hex="0031"/>
  <outline>
    <contour>
      <point x="546" y="0" type="line"/>
      <point x="677" y="0" type="line"/>
      <point x="677" y="1096" type="line"/>
      <point x="537" y="1096" type="line"/>
      <point x="275" y="963" type="line"/>
      <point x="314" y="874" type="line"/>
      <point x="546" y="990" type="line"/>
    </contour>
  </outline>
</glyph>
<glyph name="three" format="1">
  <advance width="1148"/>
  <unicode hex="0033"/>
  <outline>
    <contour>
      <point x="845" y="155" type="curve" smooth="yes"/>
      <point x="845" y="-28"/>
      <point x="722" y="-102"/>
      <point x="554" y="-102" type="curve" smooth="yes"/>
      <point x="451" y="-102"/>
      <point x="332" y="-77"/>
      <point x="234" y="-29" type="curve"/>
      <point x="197" y="-124" type="line"/>
      <point x="310" y="-176"/>
      <point x="435" y="-202"/>
      <point x="555" y="-202" type="curve" smooth="yes"/>
      <point x="766" y="-202"/>
      <point x="971" y="-100"/>
      <point x="971" y="143" type="curve" smooth="yes"/>
      <point x="971" y="348"/>
      <point x="846" y="464"/>
      <point x="647" y="500" type="curve"/>
      <point x="796" y="500"/>
      <point x="930" y="604"/>
      <point x="930" y="797" type="curve" smooth="yes"/>
      <point x="930" y="1024"/>
      <point x="752" y="1115"/>
      <point x="541" y="1115" type="curve" smooth="yes"/>
      <point x="409" y="1115"/>
      <point x="297" y="1070"/>
      <point x="212" y="1025" type="curve"/>
      <point x="248" y="929" type="line"/>
      <point x="328" y="974"/>
      <point x="427" y="1013"/>
      <point x="538" y="1013" type="curve" smooth="yes"/>
      <point x="679" y="1013"/>
      <point x="810" y="968"/>
      <point x="810" y="787" type="curve" smooth="yes"/>
      <point x="810" y="592"/>
      <point x="654" y="552"/>
      <point x="510" y="552" type="curve"/>
      <point x="510" y="448" type="line"/>
      <point x="710" y="420"/>
      <point x="845" y="353"/>
    </contour>
  </outline>
</glyph>
<glyph name="five" format="1">
  <advance width="1159"/>
  <unicode hex="0035"/>
  <outline>
    <contour>
      <point x="560" y="-201" type="curve" smooth="yes"/>
      <point x="816" y="-201"/>
      <point x="1003" y="-52"/>
      <point x="1003" y="220" type="curve" smooth="yes"/>
      <point x="1003" y="472"/>
      <point x="852" y="643"/>
      <point x="592" y="643" type="curve" smooth="yes"/>
      <point x="497" y="643"/>
      <point x="398" y="611"/>
      <point x="349" y="563" type="curve"/>
      <point x="349" y="992" type="line"/>
      <point x="920" y="992" type="line"/>
      <point x="920" y="1096" type="line"/>
      <point x="248" y="1096" type="line"/>
      <point x="248" y="501" type="line"/>
      <point x="303" y="446" type="line"/>
      <point x="370" y="492"/>
      <point x="467" y="541"/>
      <point x="584" y="541" type="curve" smooth="yes"/>
      <point x="792" y="541"/>
      <point x="878" y="409"/>
      <point x="878" y="218" type="curve" smooth="yes"/>
      <point x="878" y="12"/>
      <point x="763" y="-95"/>
      <point x="561" y="-95" type="curve" smooth="yes"/>
      <point x="436" y="-95"/>
      <point x="326" y="-54"/>
      <point x="244" y="1" type="curve"/>
      <point x="207" y="-100" type="line"/>
      <point x="299" y="-150"/>
      <point x="410" y="-201"/>
    </contour>
  </outline>
</glyph>
<glyph name="six" format="1">
  <advance width="1207"/>
  <unicode hex="0036"/>
  <outline>
    <contour>
      <point x="637" y="-94" type="curve" smooth="yes"/>
      <point x="889" y="-94"/>
      <point x="1073" y="77"/>
      <point x="1073" y="369" type="curve" smooth="yes"/>
      <point x="1073" y="644"/>
      <point x="886" y="791"/>
      <point x="661" y="791" type="curve" smooth="yes"/>
      <point x="524" y="791"/>
      <point x="390" y="735"/>
      <point x="318" y="619" type="curve"/>
      <point x="353" y="903"/>
      <point x="554" y="1119"/>
      <point x="842" y="1193" type="curve"/>
      <point x="814" y="1294" type="line"/>
      <point x="419" y="1199"/>
      <point x="178" y="869"/>
      <point x="178" y="458" type="curve" smooth="yes"/>
      <point x="178" y="149"/>
      <point x="312" y="-94"/>
    </contour>
    <contour>
      <point x="637" y="10" type="curve" smooth="yes"/>
      <point x="370" y="10"/>
      <point x="305" y="246"/>
      <point x="305" y="437" type="curve" smooth="yes"/>
      <point x="305" y="467"/>
      <point x="306" y="490"/>
      <point x="309" y="518" type="curve"/>
      <point x="384" y="620"/>
      <point x="511" y="691"/>
      <point x="657" y="691" type="curve" smooth="yes"/>
      <point x="828" y="691"/>
      <point x="947" y="570"/>
      <point x="947" y="357" type="curve" smooth="yes"/>
      <point x="947" y="160"/>
      <point x="828" y="10"/>
    </contour>
  </outline>
</glyph>
<glyph name="eight" format="1">
  <advance width="1197"/>
  <unicode hex="0038"/>
  <outline>
    <contour>
      <point x="602" y="-144" type="curve" smooth="yes"/>
      <point x="864" y="-144"/>
      <point x="1028" y="2"/>
      <point x="1028" y="234" type="curve" smooth="yes"/>
      <point x="1028" y="403"/>
      <point x="940" y="540"/>
      <point x="770" y="590" type="curve"/>
      <point x="918" y="636"/>
      <point x="1007" y="751"/>
      <point x="1007" y="911" type="curve" smooth="yes"/>
      <point x="1007" y="1121"/>
      <point x="851" y="1254"/>
      <point x="602" y="1254" type="curve" smooth="yes"/>
      <point x="345" y="1254"/>
      <point x="183" y="1121"/>
      <point x="183" y="911" type="curve" smooth="yes"/>
      <point x="183" y="752"/>
      <point x="272" y="636"/>
      <point x="420" y="592" type="curve"/>
      <point x="250" y="543"/>
      <point x="162" y="406"/>
      <point x="162" y="234" type="curve" smooth="yes"/>
      <point x="162" y="2"/>
      <point x="332" y="-144"/>
    </contour>
    <contour>
      <point x="602" y="-46" type="curve" smooth="yes"/>
      <point x="411" y="-46"/>
      <point x="291" y="62"/>
      <point x="291" y="234" type="curve" smooth="yes"/>
      <point x="291" y="422"/>
      <point x="413" y="547"/>
      <point x="602" y="547" type="curve" smooth="yes"/>
      <point x="785" y="547"/>
      <point x="900" y="419"/>
      <point x="900" y="234" type="curve" smooth="yes"/>
      <point x="900" y="62"/>
      <point x="785" y="-46"/>
    </contour>
    <contour>
      <point x="602" y="636" type="curve" smooth="yes"/>
      <point x="431" y="636"/>
      <point x="310" y="745"/>
      <point x="310" y="911" type="curve" smooth="yes"/>
      <point x="310" y="1063"/>
      <point x="423" y="1159"/>
      <point x="602" y="1159" type="curve" smooth="yes"/>
      <point x="773" y="1159"/>
      <point x="880" y="1063"/>
      <point x="880" y="911" type="curve" smooth="yes"/>
      <point x="880" y="746"/>
      <point x="768" y="636"/>
    </contour>
  </outline>
</glyph>
<glyph name="nine" format="1">
  <advance width="1207"/>
  <unicode hex="0039"/>
  <outline>
    <contour>
      <point x="415" y="-273" type="line"/>
      <point x="810" y="-178"/>
      <point x="1051" y="153"/>
      <point x="1051" y="564" type="curve" smooth="yes"/>
      <point x="1051" y="873"/>
      <point x="917" y="1115"/>
      <point x="592" y="1115" type="curve" smooth="yes"/>
      <point x="339" y="1115"/>
      <point x="156" y="944"/>
      <point x="156" y="653" type="curve" smooth="yes"/>
      <point x="156" y="377"/>
      <point x="343" y="231"/>
      <point x="568" y="231" type="curve" smooth="yes"/>
      <point x="705" y="231"/>
      <point x="839" y="287"/>
      <point x="911" y="403" type="curve"/>
      <point x="876" y="119"/>
      <point x="668" y="-96"/>
      <point x="386" y="-171" type="curve"/>
    </contour>
    <contour>
      <point x="571" y="331" type="curve" smooth="yes"/>
      <point x="401" y="331"/>
      <point x="282" y="451"/>
      <point x="282" y="664" type="curve" smooth="yes"/>
      <point x="282" y="862"/>
      <point x="401" y="1012"/>
      <point x="591" y="1012" type="curve" smooth="yes"/>
      <point x="859" y="1012"/>
      <point x="923" y="776"/>
      <point x="923" y="585" type="curve"/>
      <point x="923" y="554"/>
      <point x="923" y="525"/>
      <point x="919" y="498" type="curve" smooth="yes"/>
      <point x="846" y="394"/>
      <point x="686" y="331"/>
    </contour>
  </outline>
</glyph>
<glyph name="semicolon" format="1">
  <advance width="528"/>
  <unicode hex="003B"/>
  <outline>
    <contour>
      <point x="188" y="-223" type="line"/>
      <point x="295" y="-191"/>
      <point x="355" y="-110"/>
      <point x="355" y="22" type="curve" smooth="yes"/>
      <point x="355" y="243" type="line"/>
      <point x="191" y="243" type="line"/>
      <point x="191" y="0" type="line"/>
      <point x="268" y="0" type="line"/>
      <point x="269" y="-94"/>
      <point x="234" y="-143"/>
      <point x="160" y="-168" type="curve"/>
    </contour>
    <contour>
      <point x="193" y="507" type="line"/>
      <point x="355" y="507" type="line"/>
      <point x="355" y="732" type="line"/>
      <point x="193" y="732" type="line"/>
    </contour>
  </outline>
</glyph>
<glyph name="less" format="1">
  <advance width="1307"/>
  <unicode hex="003C"/>
  <outline>
    <contour>
      <point x="1056" y="164" type="line"/>
      <point x="1111" y="240" type="line"/>
      <point x="394" y="706" type="line"/>
      <point x="1111" y="1172" type="line"/>
      <point x="1056" y="1249" type="line"/>
      <point x="197" y="706" type="line"/>
    </contour>
  </outline>
</glyph>
<glyph name="A" format="1">
  <advance width="1334"/>
  <unicode hex="0041"/>
  <outline>
    <contour>
      <point x="661" y="1487" type="move" name="top"/>
    </contour>
    <contour>
      <point x="59" y="0" type="line"/>
      <point x="193" y="0" type="line"/>
      <point x="318" y="368" type="line"/>
      <point x="1013" y="368" type="line"/>
      <point x="1138" y="0" type="line"/>
      <point x="1272" y="0" type="line"/>
      <point x="765" y="1485" type="line"/>
      <point x="561" y="1485" type="line"/>
    </contour>
    <contour>
      <point x="345" y="454" type="line"/>
      <point x="664" y="1397" type="line"/>
      <point x="984" y="454" type="line"/>
    </contour>
  </outline>
</glyph>
<glyph name="B" format="1">
  <advance width="1322"/>
  <unicode hex="0042"/>
  <outline>
    <contour>
      <point x="649" y="1492" type="move" name="top"/>
    </contour>
    <contour>
      <point x="175" y="0" type="line"/>
      <point x="567" y="0" type="line" smooth="yes"/>
      <point x="884" y="0"/>
      <point x="1199" y="48"/>
      <point x="1199" y="410" type="curve" smooth="yes"/>
      <point x="1199" y="658"/>
      <point x="1076" y="768"/>
      <point x="850" y="803" type="curve"/>
      <point x="1025" y="840"/>
      <point x="1124" y="922"/>
      <point x="1124" y="1129" type="curve" smooth="yes"/>
      <point x="1124" y="1477"/>
      <point x="800" y="1485"/>
      <point x="522" y="1485" type="curve" smooth="yes"/>
      <point x="175" y="1485" type="line"/>
    </contour>
    <contour>
      <point x="311" y="109" type="line"/>
      <point x="311" y="750" type="line"/>
      <point x="591" y="750" type="line" smooth="yes"/>
      <point x="828" y="750"/>
      <point x="1076" y="719"/>
      <point x="1076" y="431" type="curve" smooth="yes"/>
      <point x="1076" y="113"/>
      <point x="815" y="109"/>
      <point x="560" y="109" type="curve" smooth="yes"/>
    </contour>
    <contour>
      <point x="311" y="849" type="line"/>
      <point x="311" y="1385" type="line"/>
      <point x="442" y="1385"/>
      <point x="539" y="1385"/>
      <point x="545" y="1385" type="curve" smooth="yes"/>
      <point x="755" y="1385"/>
      <point x="1007" y="1379"/>
      <point x="1007" y="1136" type="curve" smooth="yes"/>
      <point x="1007" y="876"/>
      <point x="801" y="849"/>
      <point x="590" y="849" type="curve" smooth="yes"/>
    </contour>
  </outline>
</glyph>
<glyph name="C" format="1">
  <advance width="1228"/>
  <unicode hex="0043"/>
  <outline>
    <contour>
      <point x="758" y="1488" type="move" name="top"/>
    </contour>
    <contour>
      <point x="735" y="-4" type="move" name="bot"/>
    </contour>
    <contour>
      <point x="757" y="-21" type="curve" smooth="yes"/>
      <point x="911" y="-21"/>
      <point x="1058" y="37"/>
      <point x="1161" y="104" type="curve"/>
      <point x="1114" y="196" type="line"/>
      <point x="1024" y="142"/>
      <point x="905" y="89"/>
      <point x="759" y="89" type="curve" smooth="yes"/>
      <point x="347" y="89"/>
      <point x="266" y="422"/>
      <point x="266" y="729" type="curve" smooth="yes"/>
      <point x="266" y="1033"/>
      <point x="355" y="1395"/>
      <point x="767" y="1395" type="curve" smooth="yes"/>
      <point x="916" y="1395"/>
      <point x="1034" y="1334"/>
      <point x="1082" y="1304" type="curve"/>
      <point x="1127" y="1396" type="line"/>
      <point x="1068" y="1436"/>
      <point x="936" y="1505"/>
      <point x="767" y="1505" type="curve" smooth="yes"/>
      <point x="296" y="1505"/>
      <point x="129" y="1149"/>
      <point x="129" y="732" type="curve" smooth="yes"/>
      <point x="129" y="341"/>
      <point x="269" y="-21"/>
    </contour>
  </outline>
</glyph>
<glyph name="E" format="1">
  <advance width="1157"/>
  <unicode hex="0045"/>
  <outline>
    <contour>
      <point x="654" y="1487" type="move" name="top"/>
    </contour>
    <contour>
      <point x="649" y="0" type="move" name="bot"/>
    </contour>
    <contour>
      <point x="175" y="0" type="line"/>
      <point x="1042" y="0" type="line"/>
      <point x="1042" y="106" type="line"/>
      <point x="311" y="106" type="line"/>
      <point x="311" y="725" type="line"/>
      <point x="943" y="725" type="line"/>
      <point x="943" y="823" type="line"/>
      <point x="311" y="823" type="line"/>
      <point x="311" y="1380" type="line"/>
      <point x="1055" y="1380" type="line"/>
      <point x="1055" y="1485" type="line"/>
      <point x="175" y="1485" type="line"/>
    </contour>
  </outline>
</glyph>
<glyph name="F" format="1">
  <advance width="1092"/>
  <unicode hex="0046"/>
  <outline>
    <contour>
      <point x="618" y="1487" type="move" name="top"/>
    </contour>
    <contour>
      <point x="175" y="0" type="line"/>
      <point x="312" y="0" type="line"/>
      <point x="312" y="742" type="line"/>
      <point x="954" y="742" type="line"/>
      <point x="954" y="833" type="line"/>
      <point x="312" y="833" type="line"/>
      <point x="312" y="1385" type="line"/>
      <point x="997" y="1385" type="line"/>
      <point x="997" y="1485" type="line"/>
      <point x="175" y="1485" type="line"/>
    </contour>
  </outline>
</glyph>
<glyph name="G" format="1">
  <advance width="1416"/>
  <unicode hex="0047"/>
  <outline>
    <contour>
      <point x="757" y="-4" type="move" name="bot"/>
    </contour>
    <contour>
      <point x="731" y="-21" type="curve" smooth="yes"/>
      <point x="932" y="-21"/>
      <point x="1101" y="49"/>
      <point x="1156" y="178" type="curve"/>
      <point x="1192" y="-2" type="line"/>
      <point x="1257" y="-2" type="line"/>
      <point x="1257" y="756" type="line"/>
      <point x="741" y="756" type="line"/>
      <point x="741" y="662" type="line"/>
      <point x="1129" y="662" type="line"/>
      <point x="1129" y="357" type="line"/>
      <point x="1129" y="179"/>
      <point x="961" y="89"/>
      <point x="753" y="89" type="curve" smooth="yes"/>
      <point x="338" y="89"/>
      <point x="266" y="418"/>
      <point x="266" y="743" type="curve" smooth="yes"/>
      <point x="266" y="1034"/>
      <point x="353" y="1395"/>
      <point x="759" y="1395" type="curve" smooth="yes"/>
      <point x="914" y="1395"/>
      <point x="1061" y="1341"/>
      <point x="1130" y="1293" type="curve"/>
      <point x="1178" y="1387" type="line"/>
      <point x="1092" y="1438"/>
      <point x="946" y="1505"/>
      <point x="761" y="1505" type="curve" smooth="yes"/>
      <point x="295" y="1505"/>
      <point x="129" y="1144"/>
      <point x="129" y="745" type="curve" smooth="yes"/>
      <point x="129" y="347"/>
      <point x="275" y="-21"/>
    </contour>
  </outline>
</glyph>
<glyph name="I" format="1">
  <advance width="825"/>
  <unicode hex="0049"/>
  <outline>
    <contour>
      <point x="422" y="1487" type="move" name="top"/>
    </contour>
    <contour>
      <point x="148" y="0" type="line"/>
      <point x="673" y="0" type="line"/>
      <point x="673" y="80" type="line"/>
      <point x="477" y="80" type="line"/>
      <point x="477" y="1403" type="line"/>
      <point x="673" y="1403" type="line"/>
      <point x="673" y="1485" type="line"/>
      <point x="148" y="1485" type="line"/>
      <point x="148" y="1403" type="line"/>
      <point x="347" y="1403" type="line"/>
      <point x="347" y="80" type="line"/>
      <point x="148" y="80" type="line"/>
    </contour>
  </outline>
</glyph>
<glyph name="J" format="1">
  <advance width="694"/>
  <unicode hex="004A"/>
  <outline>
    <contour>
      <point x="439" y="1485" type="move" name="top"/>
    </contour>
    <contour>
      <point x="87" y="-181" type="line"/>
      <point x="464" y="-144"/>
      <point x="509" y="17"/>
      <point x="509" y="325" type="curve" smooth="yes"/>
      <point x="508" y="1485" type="line"/>
      <point x="372" y="1485" type="line"/>
      <point x="372" y="324" type="line" smooth="yes"/>
      <point x="372" y="56"/>
      <point x="364" y="-31"/>
      <point x="73" y="-71" type="curve"/>
    </contour>
  </outline>
</glyph>
<glyph name="K" format="1">
  <advance width="1235"/>
  <unicode hex="004B"/>
  <outline>
    <contour>
      <point x="629" y="1487" type="move" name="top"/>
    </contour>
    <contour>
      <point x="635" y="0" type="move" name="bot"/>
    </contour>
    <contour>
      <point x="175" y="0" type="line"/>
      <point x="311" y="0" type="line"/>
      <point x="311" y="715" type="line"/>
      <point x="358" y="715" type="line"/>
      <point x="1042" y="0" type="line"/>
      <point x="1207" y="0" type="line"/>
      <point x="478" y="765" type="line"/>
      <point x="1158" y="1485" type="line"/>
      <point x="1007" y="1485" type="line"/>
      <point x="351" y="806" type="line"/>
      <point x="311" y="806" type="line"/>
      <point x="311" y="1485" type="line"/>
      <point x="175" y="1485" type="line"/>
    </contour>
  </outline>
</glyph>
<glyph name="R" format="1">
  <advance width="1377"/>
  <unicode hex="0052"/>
  <outline>
    <contour>
      <point x="683" y="1487" type="move" name="top"/>
    </contour>
    <contour>
      <point x="654" y="0" type="move" name="bot"/>
    </contour>
    <contour>
      <point x="175" y="0" type="line"/>
      <point x="311" y="0" type="line"/>
      <point x="311" y="701" type="line"/>
      <point x="516" y="701"/>
      <point x="667" y="701"/>
      <point x="668" y="701" type="curve" smooth="yes"/>
      <point x="986" y="701"/>
      <point x="1022" y="626"/>
      <point x="1051" y="415" type="curve" smooth="yes"/>
      <point x="1112" y="0" type="line"/>
      <point x="1235" y="0" type="line"/>
      <point x="1177" y="424" type="line" smooth="yes"/>
      <point x="1151" y="623"/>
      <point x="1108" y="723"/>
      <point x="938" y="750" type="curve"/>
      <point x="1102" y="786"/>
      <point x="1206" y="894"/>
      <point x="1206" y="1101" type="curve" smooth="yes"/>
      <point x="1206" y="1474"/>
      <point x="903" y="1485"/>
      <point x="622" y="1485" type="curve" smooth="yes"/>
      <point x="175" y="1485" type="line"/>
    </contour>
    <contour>
      <point x="311" y="799" type="line"/>
      <point x="311" y="1380" type="line"/>
      <point x="623" y="1380" type="line" smooth="yes"/>
      <point x="869" y="1380"/>
      <point x="1080" y="1374"/>
      <point x="1080" y="1097" type="curve" smooth="yes"/>
      <point x="1080" y="829"/>
      <point x="889" y="799"/>
      <point x="661" y="799" type="curve" smooth="yes"/>
    </contour>
  </outline>
</glyph>
<glyph name="S" format="1">
  <advance width="1160"/>
  <unicode hex="0053"/>
  <outline>
    <contour>
      <point x="582" y="1486" type="move" name="top"/>
    </contour>
    <contour>
      <point x="551" y="-7" type="move" name="bot"/>
    </contour>
    <contour>
      <point x="945" y="392" type="curve" smooth="yes"/>
      <point x="945" y="152"/>
      <point x="787" y="89"/>
      <point x="570" y="89" type="curve" smooth="yes"/>
      <point x="386" y="89"/>
      <point x="222" y="165"/>
      <point x="153" y="212" type="curve"/>
      <point x="102" y="111" type="line"/>
      <point x="202" y="48"/>
      <point x="397" y="-21"/>
      <point x="567" y="-21" type="curve" smooth="yes"/>
      <point x="850" y="-21"/>
      <point x="1069" y="81"/>
      <point x="1069" y="390" type="curve" smooth="yes"/>
      <point x="1069" y="683"/>
      <point x="908" y="742"/>
      <point x="673" y="816" type="curve" smooth="yes"/>
      <point x="502" y="870" type="line" smooth="yes"/>
      <point x="314" y="926"/>
      <point x="233" y="983"/>
      <point x="233" y="1144" type="curve" smooth="yes"/>
      <point x="233" y="1338"/>
      <point x="393" y="1396"/>
      <point x="571" y="1396" type="curve" smooth="yes"/>
      <point x="729" y="1396"/>
      <point x="867" y="1348"/>
      <point x="945" y="1287" type="curve"/>
      <point x="995" y="1383" type="line"/>
      <point x="882" y="1465"/>
      <point x="734" y="1505"/>
      <point x="565" y="1505" type="curve" smooth="yes"/>
      <point x="309" y="1505"/>
      <point x="105" y="1401"/>
      <point x="105" y="1132" type="curve" smooth="yes"/>
      <point x="105" y="901"/>
      <point x="241" y="819"/>
      <point x="455" y="756" type="curve" smooth="yes"/>
      <point x="642" y="698" type="line" smooth="yes"/>
      <point x="859" y="634"/>
      <point x="946" y="585"/>
    </contour>
  </outline>
</glyph>
<glyph name="U" format="1">
  <advance width="1429"/>
  <unicode hex="0055"/>
  <outline>
    <contour>
      <point x="727" y="1489" type="move" name="top"/>
    </contour>
    <contour>
      <point x="714" y="-21" type="curve" smooth="yes"/>
      <point x="1153" y="-21"/>
      <point x="1280" y="196"/>
      <point x="1280" y="673" type="curve" smooth="yes"/>
      <point x="1280" y="1485" type="line"/>
      <point x="1145" y="1485" type="line"/>
      <point x="1145" y="670" type="line" smooth="yes"/>
      <point x="1145" y="280"/>
      <point x="1073" y="85"/>
      <point x="714" y="85" type="curve" smooth="yes"/>
      <point x="357" y="85"/>
      <point x="284" y="279"/>
      <point x="284" y="670" type="curve" smooth="yes"/>
      <point x="284" y="1485" type="line"/>
      <point x="149" y="1485" type="line"/>
      <point x="149" y="673" type="line" smooth="yes"/>
      <point x="149" y="196"/>
      <point x="278" y="-21"/>
    </contour>
  </outline>
</glyph>
<glyph name="W" format="1">
  <advance width="1973"/>
  <unicode hex="0057"/>
  <outline>
    <contour>
      <point x="992" y="1487" type="move" name="top"/>
    </contour>
    <contour>
      <point x="450" y="0" type="line"/>
      <point x="610" y="0" type="line"/>
      <point x="989" y="1279" type="line"/>
      <point x="1363" y="0" type="line"/>
      <point x="1522" y="0" type="line"/>
      <point x="1894" y="1485" type="line"/>
      <point x="1766" y="1485" type="line"/>
      <point x="1434" y="128" type="line"/>
      <point x="1060" y="1420" type="line"/>
      <point x="919" y="1420" type="line"/>
      <point x="538" y="128" type="line"/>
      <point x="207" y="1485" type="line"/>
      <point x="80" y="1485" type="line"/>
    </contour>
  </outline>
</glyph>
<glyph name="Z" format="1">
  <advance width="1106"/>
  <unicode hex="005A"/>
  <outline>
    <contour>
      <point x="606" y="1487" type="move" name="top"/>
    </contour>
    <contour>
      <point x="122" y="0" type="line"/>
      <point x="1030" y="0" type="line"/>
      <point x="1030" y="104" type="line"/>
      <point x="268" y="104" type="line"/>
      <point x="1033" y="1390" type="line"/>
      <point x="1033" y="1485" type="line"/>
      <point x="135" y="1485" type="line"/>
      <point x="135" y="1387" type="line"/>
      <point x="888" y="1387" type="line"/>
      <point x="122" y="102" type="line"/>
    </contour>
  </outline>
</glyph>
<glyph name="bracketleft" format="1">
  <advance width="835"/>
  <unicode hex="005B"/>
  <outline>
    <contour>
      <point x="160" y="-183" type="line"/>
      <point x="760" y="-183" type="line"/>
      <point x="760" y="-80" type="line"/>
      <point x="295" y="-80" type="line"/>
      <point x="295" y="1500" type="line"/>
      <point x="760" y="1500" type="line"/>
      <point x="760" y="1604" type="line"/>
      <point x="160" y="1604" type="line"/>
    </contour>
  </outline>
</glyph>
<glyph name="bracketright" format="1">
  <advance width="830"/>
  <unicode hex="005D"/>
  <outline>
    <contour>
      <point x="70" y="-183" type="line"/>
      <point x="670" y="-183" type="line"/>
      <point x="670" y="1604" type="line"/>
      <point x="70" y="1604" type="line"/>
      <point x="70" y="1500" type="line"/>
      <point x="535" y="1500" type="line"/>
      <point x="535" y="-80" type="line"/>
      <point x="70" y="-80" type="line"/>
    </contour>
  </outline>
</glyph>
<glyph name="underscore" format="1">
  <advance width="1122"/>
  <unicode hex="005F"/>
  <outline>
    <contour>
      <point x="128" y="-151" type="line"/>
      <point x="995" y="-151" type="line"/>
      <point x="995" y="-48" type="line"/>
      <point x="128" y="-48" type="line"/>
    </contour>
  </outline>
</glyph>
<glyph name="grave" format="1">
  <advance width="575"/>
  <unicode hex="0060"/>
  <outline>
    <contour>
      <point x="423" y="1097" type="move" name="_top"/>
    </contour>
    <contour>
      <point x="458" y="1274" type="line"/>
      <point x="486" y="1311" type="line"/>
      <point x="110" y="1622" type="line"/>
      <point x="31" y="1525" type="line"/>
    </contour>
  </outline>
</glyph>
<glyph name="a" format="1">
  <advance width="1138"/>
  <unicode hex="0061"/>
  <outline>
    <contour>
      <point x="551" y="1100" type="move" name="top"/>
    </contour>
    <contour>
      <point x="107" y="319" type="curve" smooth="yes"/>
      <point x="109" y="90"/>
      <point x="259" y="-21"/>
      <point x="470" y="-21" type="curve" smooth="yes"/>
      <point x="633" y="-21"/>
      <point x="758" y="45"/>
      <point x="858" y="172" type="curve"/>
      <point x="880" y="0" type="line"/>
      <point x="976" y="0" type="line"/>
      <point x="976" y="666" type="line" smooth="yes"/>
      <point x="976" y="1003"/>
      <point x="831" y="1117"/>
      <point x="558" y="1117" type="curve" smooth="yes"/>
      <point x="383" y="1117"/>
      <point x="234" y="1060"/>
      <point x="159" y="1020" type="curve"/>
      <point x="197" y="926" type="line"/>
      <point x="261" y="958"/>
      <point x="399" y="1014"/>
      <point x="563" y="1014" type="curve" smooth="yes"/>
      <point x="758" y="1014"/>
      <point x="844" y="919"/>
      <point x="844" y="677" type="curve" smooth="yes"/>
      <point x="844" y="615" type="line"/>
      <point x="765" y="640"/>
      <point x="637" y="653"/>
      <point x="536" y="653" type="curve" smooth="yes"/>
      <point x="268" y="653"/>
      <point x="106" y="550"/>
    </contour>
    <contour>
      <point x="495" y="80" type="curve" smooth="yes"/>
      <point x="357" y="80"/>
      <point x="237" y="146"/>
      <point x="237" y="327" type="curve" smooth="yes"/>
      <point x="237" y="516"/>
      <point x="381" y="560"/>
      <point x="562" y="560" type="curve" smooth="yes"/>
      <point x="681" y="560"/>
      <point x="768" y="551"/>
      <point x="844" y="531" type="curve"/>
      <point x="844" y="248" type="line"/>
      <point x="746" y="147"/>
      <point x="641" y="80"/>
    </contour>
  </outline>
</glyph>
<glyph name="b" format="1">
  <advance width="1216"/>
  <unicode hex="0062"/>
  <outline>
    <contour>
      <point x="650" y="1100" type="move" name="top"/>
    </contour>
    <contour>
      <point x="631" y="-21" type="curve" smooth="yes"/>
      <point x="962" y="-21"/>
      <point x="1098" y="269"/>
      <point x="1098" y="545" type="curve" smooth="yes"/>
      <point x="1098" y="853"/>
      <point x="955" y="1117"/>
      <point x="646" y="1117" type="curve" smooth="yes"/>
      <point x="505" y="1117"/>
      <point x="385" y="1056"/>
      <point x="304" y="959" type="curve"/>
      <point x="304" y="1536" type="line"/>
      <point x="171" y="1509" type="line"/>
      <point x="171" y="0" type="line"/>
      <point x="275" y="0" type="line"/>
      <point x="293" y="138" type="line"/>
      <point x="367" y="45"/>
      <point x="479" y="-21"/>
    </contour>
    <contour>
      <point x="631" y="81" type="curve" smooth="yes"/>
      <point x="485" y="81"/>
      <point x="379" y="135"/>
      <point x="304" y="235" type="curve"/>
      <point x="305" y="854" type="line"/>
      <point x="390" y="956"/>
      <point x="501" y="1013"/>
      <point x="632" y="1013" type="curve" smooth="yes"/>
      <point x="883" y="1013"/>
      <point x="970" y="786"/>
      <point x="970" y="547" type="curve" smooth="yes"/>
      <point x="970" y="335"/>
      <point x="897" y="81"/>
    </contour>
  </outline>
</glyph>
<glyph name="e" format="1">
  <advance width="1126"/>
  <unicode hex="0065"/>
  <outline>
    <contour>
      <point x="602" y="1100" type="move" name="top"/>
    </contour>
    <contour>
      <point x="613" y="-4" type="move" name="bot"/>
    </contour>
    <contour>
      <point x="614" y="-21" type="curve" smooth="yes"/>
      <point x="733" y="-21"/>
      <point x="895" y="24"/>
      <point x="985" y="104" type="curve"/>
      <point x="942" y="192" type="line"/>
      <point x="882" y="142"/>
      <point x="764" y="81"/>
      <point x="631" y="81" type="curve" smooth="yes"/>
      <point x="383" y="81"/>
      <point x="243" y="252"/>
      <point x="241" y="544" type="curve"/>
      <point x="1008" y="544" type="line"/>
      <point x="1011" y="561"/>
      <point x="1018" y="597"/>
      <point x="1018" y="643" type="curve" smooth="yes"/>
      <point x="1018" y="900"/>
      <point x="887" y="1117"/>
      <point x="603" y="1117" type="curve" smooth="yes"/>
      <point x="275" y="1117"/>
      <point x="112" y="854"/>
      <point x="112" y="552" type="curve" smooth="yes"/>
      <point x="112" y="232"/>
      <point x="279" y="-21"/>
    </contour>
    <contour>
      <point x="245" y="636" type="line"/>
      <point x="261" y="839"/>
      <point x="359" y="1015"/>
      <point x="604" y="1015" type="curve" smooth="yes"/>
      <point x="812" y="1015"/>
      <point x="897" y="848"/>
      <point x="897" y="671" type="curve" smooth="yes"/>
      <point x="897" y="636" type="line"/>
    </contour>
  </outline>
</glyph>
<glyph name="f" format="1">
  <advance width="745"/>
  <unicode hex="0066"/>
  <outline>
    <contour>
      <point x="309" y="1500" type="move" name="top"/>
    </contour>
    <contour>
      <point x="551" y="1529" type="curve" smooth="yes"/>
      <point x="383" y="1531"/>
      <point x="260" y="1442"/>
      <point x="260" y="1164" type="curve" smooth="yes"/>
      <point x="260" y="1097" type="line"/>
      <point x="72" y="1097" type="line"/>
      <point x="72" y="1009" type="line"/>
      <point x="260" y="1009" type="line"/>
      <point x="260" y="0" type="line"/>
      <point x="391" y="0" type="line"/>
      <point x="391" y="1009" type="line"/>
      <point x="709" y="1009" type="line"/>
      <point x="709" y="1097" type="line"/>
      <point x="391" y="1097" type="line"/>
      <point x="391" y="1160" type="line" smooth="yes"/>
      <point x="391" y="1369"/>
      <point x="453" y="1429"/>
      <point x="562" y="1430" type="curve" smooth="yes"/>
      <point x="610" y="1430"/>
      <point x="673" y="1414"/>
      <point x="717" y="1397" type="curve"/>
      <point x="745" y="1487" type="line"/>
      <point x="693" y="1509"/>
      <point x="622" y="1528"/>
    </contour>
  </outline>
</glyph>
<glyph name="i" format="1">
  <advance width="512"/>
  <unicode hex="0069"/>
  <outline>
    <contour>
      <point x="194" y="0" type="line"/>
      <point x="325" y="0" type="line"/>
      <point x="325" y="1097" type="line"/>
      <point x="194" y="1097" type="line"/>
    </contour>
    <contour>
      <point x="263" y="1265" type="curve" smooth="yes"/>
      <point x="315" y="1265"/>
      <point x="346" y="1306"/>
      <point x="346" y="1352" type="curve" smooth="yes"/>
      <point x="346" y="1397"/>
      <point x="315" y="1438"/>
      <point x="263" y="1438" type="curve" smooth="yes"/>
      <point x="212" y="1438"/>
      <point x="178" y="1397"/>
      <point x="178" y="1352" type="curve" smooth="yes"/>
      <point x="178" y="1306"/>
      <point x="211" y="1265"/>
    </contour>
  </outline>
</glyph>
<glyph name="j" format="1">
  <advance width="509"/>
  <unicode hex="006A"/>
  <outline>
    <contour>
      <point x="31" y="-399" type="line"/>
      <point x="267" y="-335"/>
      <point x="344" y="-254"/>
      <point x="344" y="69" type="curve" smooth="yes"/>
      <point x="344" y="1097" type="line"/>
      <point x="213" y="1097" type="line"/>
      <point x="213" y="79" type="line" smooth="yes"/>
      <point x="213" y="-187"/>
      <point x="201" y="-226"/>
      <point x="-4" y="-299" type="curve"/>
    </contour>
    <contour>
      <point x="280" y="1265" type="curve" smooth="yes"/>
      <point x="333" y="1265"/>
      <point x="363" y="1306"/>
      <point x="363" y="1352" type="curve" smooth="yes"/>
      <point x="363" y="1397"/>
      <point x="333" y="1438"/>
      <point x="280" y="1438" type="curve" smooth="yes"/>
      <point x="229" y="1438"/>
      <point x="196" y="1397"/>
      <point x="196" y="1352" type="curve" smooth="yes"/>
      <point x="196" y="1306"/>
      <point x="229" y="1265"/>
    </contour>
  </outline>
</glyph>
<glyph name="n" format="1">
  <advance width="1224"/>
  <unicode hex="006E"/>
  <outline>
    <contour>
      <point x="661" y="1099" type="move" name="top"/>
    </contour>
    <contour>
      <point x="639" y="-1" type="move" name="bot"/>
    </contour>
    <contour>
      <point x="171" y="0" type="line"/>
      <point x="302" y="0" type="line"/>
      <point x="302" y="832" type="line"/>
      <point x="403" y="934"/>
      <point x="532" y="1012"/>
      <point x="684" y="1012" type="curve" smooth="yes"/>
      <point x="898" y="1012"/>
      <point x="934" y="854"/>
      <point x="934" y="678" type="curve" smooth="yes"/>
      <point x="934" y="0" type="line"/>
      <point x="1064" y="0" type="line"/>
      <point x="1064" y="683" type="line" smooth="yes"/>
      <point x="1064" y="912"/>
      <point x="993" y="1117"/>
      <point x="697" y="1117" type="curve" smooth="yes"/>
      <point x="528" y="1117"/>
      <point x="397" y="1039"/>
      <point x="289" y="931" type="curve"/>
      <point x="269" y="1097" type="line"/>
      <point x="171" y="1097" type="line"/>
    </contour>
  </outline>
</glyph>
<glyph name="o" format="1">
  <advance width="1212"/>
  <unicode hex="006F"/>
  <outline>
    <contour>
      <point x="607" y="1099" type="move" name="top"/>
    </contour>
    <contour>
      <point x="606" y="84" type="curve" smooth="yes"/>
      <point x="346" y="84"/>
      <point x="248" y="313"/>
      <point x="248" y="548" type="curve" smooth="yes"/>
      <point x="248" y="760"/>
      <point x="333" y="1012"/>
      <point x="606" y="1012" type="curve" smooth="yes"/>
      <point x="882" y="1012"/>
      <point x="965" y="760"/>
      <point x="965" y="548" type="curve" smooth="yes"/>
      <point x="965" y="313"/>
      <point x="869" y="84"/>
    </contour>
    <contour>
      <point x="606" y="-21" type="curve" smooth="yes"/>
      <point x="941" y="-21"/>
      <point x="1095" y="242"/>
      <point x="1095" y="546" type="curve" smooth="yes"/>
      <point x="1095" y="846"/>
      <point x="942" y="1116"/>
      <point x="606" y="1116" type="curve" smooth="yes"/>
      <point x="271" y="1116"/>
      <point x="118" y="846"/>
      <point x="118" y="546" type="curve" smooth="yes"/>
      <point x="118" y="242"/>
      <point x="272" y="-21"/>
    </contour>
  </outline>
</glyph>
<glyph name="q" format="1">
  <advance width="1173"/>
  <unicode hex="0071"/>
  <outline>
    <contour>
      <point x="1031" y="-462" type="line"/>
      <point x="1031" y="1097" type="line"/>
      <point x="927" y="1097" type="line"/>
      <point x="910" y="960" type="line"/>
      <point x="830" y="1058"/>
      <point x="706" y="1117"/>
      <point x="560" y="1117" type="curve" smooth="yes"/>
      <point x="251" y="1117"/>
      <point x="112" y="852"/>
      <point x="112" y="545" type="curve" smooth="yes"/>
      <point x="112" y="270"/>
      <point x="247" y="-21"/>
      <point x="578" y="-21" type="curve" smooth="yes"/>
      <point x="717" y="-21"/>
      <point x="824" y="33"/>
      <point x="898" y="119" type="curve"/>
      <point x="898" y="-462" type="line"/>
    </contour>
    <contour>
      <point x="585" y="80" type="curve" smooth="yes"/>
      <point x="323" y="80"/>
      <point x="239" y="312"/>
      <point x="239" y="547" type="curve" smooth="yes"/>
      <point x="239" y="784"/>
      <point x="322" y="1012"/>
      <point x="574" y="1013" type="curve" smooth="yes"/>
      <point x="702" y="1013"/>
      <point x="813" y="964"/>
      <point x="898" y="864" type="curve"/>
      <point x="898" y="230" type="line"/>
      <point x="824" y="134"/>
      <point x="720" y="80"/>
    </contour>
  </outline>
</glyph>
<glyph name="r" format="1">
  <advance width="720"/>
  <unicode hex="0072"/>
  <outline>
    <contour>
      <point x="410" y="1097" type="move" name="top"/>
    </contour>
    <contour>
      <point x="368" y="0" type="move" name="bot"/>
    </contour>
    <contour>
      <point x="155" y="0" type="line"/>
      <point x="286" y="0" type="line"/>
      <point x="284" y="849" type="line"/>
      <point x="387" y="944"/>
      <point x="526" y="990"/>
      <point x="657" y="996" type="curve"/>
      <point x="649" y="1109" type="line"/>
      <point x="541" y="1109"/>
      <point x="387" y="1053"/>
      <point x="274" y="925" type="curve"/>
      <point x="253" y="1097" type="line"/>
      <point x="155" y="1097" type="line"/>
    </contour>
  </outline>
</glyph>
<glyph name="t" format="1">
  <advance width="759"/>
  <unicode hex="0074"/>
  <outline>
    <contour>
      <point x="285" y="1428" type="move" name="top"/>
    </contour>
    <contour>
      <point x="316" y="1430" type="move" name="caron.alt"/>
    </contour>
    <contour>
      <point x="466" y="0" type="move" name="bot"/>
    </contour>
    <contour>
      <point x="499" y="-10" type="curve" smooth="yes"/>
      <point x="566" y="-11"/>
      <point x="638" y="-1"/>
      <point x="703" y="25" type="curve"/>
      <point x="686" y="117" type="line"/>
      <point x="631" y="100"/>
      <point x="579" y="90"/>
      <point x="531" y="90" type="curve" smooth="yes"/>
      <point x="416" y="90"/>
      <point x="366" y="149"/>
      <point x="366" y="241" type="curve" smooth="yes"/>
      <point x="366" y="1007" type="line"/>
      <point x="682" y="1007" type="line"/>
      <point x="682" y="1097" type="line"/>
      <point x="366" y="1097" type="line"/>
      <point x="366" y="1470" type="line"/>
      <point x="252" y="1441" type="line"/>
      <point x="237" y="1097" type="line"/>
      <point x="60" y="1097" type="line"/>
      <point x="60" y="1007" type="line"/>
      <point x="236" y="1007" type="line"/>
      <point x="236" y="241" type="line" smooth="yes"/>
      <point x="236" y="76"/>
      <point x="338" y="-7"/>
    </contour>
  </outline>
</glyph>
<glyph name="u" format="1">
  <advance width="1231"/>
  <unicode hex="0075"/>
  <outline>
    <contour>
      <point x="621" y="1097" type="move" name="top"/>
    </contour>
    <contour>
      <point x="538" y="-21" type="curve" smooth="yes"/>
      <point x="720" y="-21"/>
      <point x="853" y="60"/>
      <point x="942" y="171" type="curve"/>
      <point x="963" y="0" type="line"/>
      <point x="1061" y="0" type="line"/>
      <point x="1061" y="1097" type="line"/>
      <point x="927" y="1097" type="line"/>
      <point x="927" y="272" type="line"/>
      <point x="826" y="152"/>
      <point x="721" y="84"/>
      <point x="543" y="84" type="curve" smooth="yes"/>
      <point x="333" y="84"/>
      <point x="294" y="232"/>
      <point x="294" y="411" type="curve" smooth="yes"/>
      <point x="294" y="1097" type="line"/>
      <point x="161" y="1097" type="line"/>
      <point x="161" y="406" type="line" smooth="yes"/>
      <point x="161" y="164"/>
      <point x="247" y="-21"/>
    </contour>
  </outline>
</glyph>
<glyph name="x" format="1">
  <advance width="1023"/>
  <unicode hex="0078"/>
  <outline>
    <contour>
      <point x="70" y="0" type="line"/>
      <point x="207" y="0" type="line"/>
      <point x="510" y="468" type="line"/>
      <point x="814" y="0" type="line"/>
      <point x="949" y="0" type="line"/>
      <point x="575" y="550" type="line"/>
      <point x="941" y="1097" type="line"/>
      <point x="809" y="1097" type="line"/>
      <point x="507" y="641" type="line"/>
      <point x="202" y="1097" type="line"/>
      <point x="70" y="1097" type="line"/>
      <point x="439" y="552" type="line"/>
    </contour>
  </outline>
</glyph>
<glyph name="y" format="1">
  <advance width="1055"/>
  <unicode hex="0079"/>
  <outline>
    <contour>
      <point x="548" y="1097" type="move" name="top"/>
    </contour>
    <contour>
      <point x="186" y="-389" type="line"/>
      <point x="449" y="-389"/>
      <point x="504" y="-229"/>
      <point x="575" y="-36" type="curve" smooth="yes"/>
      <point x="995" y="1097" type="line"/>
      <point x="860" y="1097" type="line"/>
      <point x="537" y="166" type="line"/>
      <point x="186" y="1097" type="line"/>
      <point x="55" y="1097" type="line"/>
      <point x="475" y="24" type="line"/>
      <point x="407" y="-194"/>
      <point x="375" y="-292"/>
      <point x="158" y="-301" type="curve"/>
    </contour>
  </outline>
</glyph>
<glyph name="braceright" format="1">
  <advance width="779"/>
  <unicode hex="007D"/>
  <outline>
    <contour>
      <point x="113" y="-134" type="line"/>
      <point x="390" y="-131"/>
      <point x="469" y="-60"/>
      <point x="469" y="289" type="curve" smooth="yes"/>
      <point x="469" y="585"/>
      <point x="498" y="643"/>
      <point x="673" y="646" type="curve"/>
      <point x="673" y="756" type="line"/>
      <point x="495" y="759"/>
      <point x="469" y="816"/>
      <point x="469" y="1114" type="curve" smooth="yes"/>
      <point x="469" y="1462"/>
      <point x="390" y="1533"/>
      <point x="113" y="1536" type="curve"/>
      <point x="113" y="1449" type="line"/>
      <point x="304" y="1444"/>
      <point x="335" y="1369"/>
      <point x="338" y="1126" type="curve" smooth="yes"/>
      <point x="342" y="772"/>
      <point x="396" y="720"/>
      <point x="553" y="702" type="curve"/>
      <point x="396" y="681"/>
      <point x="342" y="630"/>
      <point x="338" y="276" type="curve" smooth="yes"/>
      <point x="335" y="35"/>
      <point x="307" y="-43"/>
      <point x="113" y="-48" type="curve"/>
    </contour>
  </outline>
</glyph>
<glyph name="cent" format="1">
  <advance width="1013"/>
  <unicode hex="00A2"/>
  <outline>
    <contour>
      <point x="554" y="-193" type="line"/>
      <point x="631" y="-193" type="line"/>
      <point x="631" y="1350" type="line"/>
      <point x="554" y="1350" type="line"/>
    </contour>
    <component base="c" yScale="0.92" yOffset="90"/>
  </outline>
</glyph>
<glyph name="yen" format="1">
  <advance width="1153"/>
  <unicode hex="00A5"/>
  <outline>
    <contour>
      <point x="1130" y="1486" type="line"/>
      <point x="993" y="1486" type="line"/>
      <point x="575" y="704" type="line"/>
      <point x="159" y="1486" type="line"/>
      <point x="22" y="1486" type="line"/>
      <point x="474" y="642" type="line"/>
      <point x="229" y="642" type="line"/>
      <point x="229" y="561" type="line"/>
      <point x="509" y="561" type="line"/>
      <point x="509" y="449" type="line"/>
      <point x="229" y="449" type="line"/>
      <point x="229" y="372" type="line"/>
      <point x="509" y="372" type="line"/>
      <point x="509" y="0" type="line"/>
      <point x="642" y="0" type="line"/>
      <point x="642" y="372" type="line"/>
      <point x="914" y="372" type="line"/>
      <point x="914" y="449" type="line"/>
      <point x="642" y="449" type="line"/>
      <point x="642" y="561" type="line"/>
      <point x="914" y="561" type="line"/>
      <point x="914" y="642" type="line"/>
      <point x="673" y="642" type="line"/>
    </contour>
  </outline>
</glyph>
<glyph name="section" format="1">
  <advance width="906"/>
  <unicode hex="00A7"/>
  <outline>
    <contour>
      <point x="441" y="-86" type="curve" smooth="yes"/>
      <point x="626" y="-86"/>
      <point x="818" y="-5"/>
      <point x="818" y="204" type="curve" smooth="yes"/>
      <point x="818" y="377"/>
      <point x="691" y="445"/>
      <point x="552" y="482" type="curve"/>
      <point x="674" y="486"/>
      <point x="816" y="565"/>
      <point x="816" y="705" type="curve" smooth="yes"/>
      <point x="816" y="892"/>
      <point x="685" y="945"/>
      <point x="538" y="993" type="curve" smooth="yes"/>
      <point x="423" y="1031" type="line" smooth="yes"/>
      <point x="297" y="1073"/>
      <point x="223" y="1117"/>
      <point x="223" y="1206" type="curve" smooth="yes"/>
      <point x="223" y="1346"/>
      <point x="373" y="1357"/>
      <point x="450" y="1357" type="curve" smooth="yes"/>
      <point x="557" y="1357"/>
      <point x="645" y="1327"/>
      <point x="727" y="1274" type="curve"/>
      <point x="771" y="1372" type="line"/>
      <point x="694" y="1429"/>
      <point x="551" y="1469"/>
      <point x="444" y="1469" type="curve" smooth="yes"/>
      <point x="299" y="1469"/>
      <point x="104" y="1414"/>
      <point x="104" y="1208" type="curve" smooth="yes"/>
      <point x="104" y="1039"/>
      <point x="226" y="977"/>
      <point x="379" y="936" type="curve"/>
      <point x="268" y="928"/>
      <point x="104" y="874"/>
      <point x="104" y="716" type="curve" smooth="yes"/>
      <point x="104" y="514"/>
      <point x="254" y="471"/>
      <point x="377" y="438" type="curve" smooth="yes"/>
      <point x="459" y="416" type="line"/>
      <point x="591" y="381"/>
      <point x="686" y="331"/>
      <point x="686" y="203" type="curve" smooth="yes"/>
      <point x="686" y="54"/>
      <point x="530" y="25"/>
      <point x="430" y="25" type="curve" smooth="yes"/>
      <point x="331" y="25"/>
      <point x="223" y="67"/>
      <point x="163" y="114" type="curve"/>
      <point x="116" y="7" type="line"/>
      <point x="182" y="-41"/>
      <point x="326" y="-86"/>
    </contour>
    <contour>
      <point x="455" y="550" type="curve" smooth="yes"/>
      <point x="355" y="550"/>
      <point x="217" y="569"/>
      <point x="217" y="708" type="curve" smooth="yes"/>
      <point x="217" y="854"/>
      <point x="361" y="864"/>
      <point x="455" y="864" type="curve" smooth="yes"/>
      <point x="558" y="864"/>
      <point x="697" y="856"/>
      <point x="697" y="707" type="curve" smooth="yes"/>
      <point x="697" y="571"/>
      <point x="557" y="550"/>
    </contour>
  </outline>
</glyph>
<glyph name="dieresis" format="1">
  <advance width="747"/>
  <unicode hex="00A8"/>
  <outline>
    <contour>
      <point x="387" y="1097" type="move" name="_top"/>
    </contour>
    <contour>
      <point x="173" y="1255" type="curve" smooth="yes"/>
      <point x="223" y="1255"/>
      <point x="252" y="1290"/>
      <point x="252" y="1343" type="curve" smooth="yes"/>
      <point x="252" y="1395"/>
      <point x="223" y="1430"/>
      <point x="173" y="1430" type="curve" smooth="yes"/>
      <point x="122" y="1430"/>
      <point x="89" y="1395"/>
      <point x="89" y="1343" type="curve" smooth="yes"/>
      <point x="89" y="1290"/>
      <point x="121" y="1255"/>
    </contour>
    <contour>
      <point x="585" y="1255" type="curve" smooth="yes"/>
      <point x="635" y="1255"/>
      <point x="664" y="1290"/>
      <point x="664" y="1343" type="curve" smooth="yes"/>
      <point x="664" y="1395"/>
      <point x="635" y="1430"/>
      <point x="585" y="1430" type="curve" smooth="yes"/>
      <point x="534" y="1430"/>
      <point x="502" y="1395"/>
      <point x="502" y="1343" type="curve" smooth="yes"/>
      <point x="502" y="1290"/>
      <point x="534" y="1255"/>
    </contour>
  </outline>
</glyph>
<glyph name="guillemotleft" format="1">
  <advance width="1055"/>
  <unicode hex="00AB"/>
  <outline>
    <contour>
      <point x="584" y="187" type="line"/>
      <point x="584" y="314" type="line"/>
      <point x="226" y="587" type="line"/>
      <point x="584" y="858" type="line"/>
      <point x="584" y="979" type="line"/>
      <point x="121" y="634" type="line"/>
      <point x="121" y="536" type="line"/>
    </contour>
    <contour>
      <point x="970" y="187" type="line"/>
      <point x="970" y="314" type="line"/>
      <point x="613" y="587" type="line"/>
      <point x="970" y="858" type="line"/>
      <point x="970" y="979" type="line"/>
      <point x="508" y="634" type="line"/>
      <point x="508" y="536" type="line"/>
    </contour>
  </outline>
</glyph>
<glyph name="uni00AD" format="1">
  <advance width="534"/>
  <unicode hex="00AD"/>
  <outline>
    <contour>
      <point x="95" y="460" type="line"/>
      <point x="449" y="460" type="line"/>
      <point x="449" y="548" type="line"/>
      <point x="95" y="548" type="line"/>
    </contour>
  </outline>
</glyph>
<glyph name="registered" format="1">
  <advance width="1814"/>
  <unicode hex="00AE"/>
  <outline>
    <contour>
      <point x="613" y="314" type="line"/>
      <point x="705" y="314" type="line"/>
      <point x="705" y="727" type="line"/>
      <point x="921" y="727" type="line" smooth="yes"/>
      <point x="1103" y="723"/>
      <point x="1128" y="679"/>
      <point x="1141" y="557" type="curve" smooth="yes"/>
      <point x="1174" y="314" type="line"/>
      <point x="1260" y="314" type="line"/>
      <point x="1229" y="565" type="line" smooth="yes"/>
      <point x="1217" y="670"/>
      <point x="1184" y="750"/>
      <point x="1090" y="765" type="curve"/>
      <point x="1182" y="789"/>
      <point x="1248" y="855"/>
      <point x="1248" y="972" type="curve" smooth="yes"/>
      <point x="1248" y="1198"/>
      <point x="1060" y="1210"/>
      <point x="894" y="1210" type="curve" smooth="yes"/>
      <point x="613" y="1210" type="line"/>
    </contour>
    <contour>
      <point x="705" y="798" type="line"/>
      <point x="705" y="1136" type="line"/>
      <point x="894" y="1136" type="line" smooth="yes"/>
      <point x="1043" y="1136"/>
      <point x="1162" y="1127"/>
      <point x="1162" y="970" type="curve" smooth="yes"/>
      <point x="1162" y="817"/>
      <point x="1067" y="798"/>
      <point x="927" y="798" type="curve" smooth="yes"/>
    </contour>
    <contour>
      <point x="907" y="69" type="curve" smooth="yes"/>
      <point x="483" y="69"/>
      <point x="217" y="328"/>
      <point x="217" y="746" type="curve" smooth="yes"/>
      <point x="217" y="1165"/>
      <point x="483" y="1424"/>
      <point x="907" y="1424" type="curve" smooth="yes"/>
      <point x="1332" y="1424"/>
      <point x="1598" y="1165"/>
      <point x="1598" y="746" type="curve" smooth="yes"/>
      <point x="1598" y="328"/>
      <point x="1332" y="69"/>
    </contour>
    <contour>
      <point x="907" y="-17" type="curve" smooth="yes"/>
      <point x="1396" y="-17"/>
      <point x="1704" y="280"/>
      <point x="1704" y="746" type="curve" smooth="yes"/>
      <point x="1704" y="1213"/>
      <point x="1396" y="1509"/>
      <point x="907" y="1509" type="curve" smooth="yes"/>
      <point x="419" y="1509"/>
      <point x="111" y="1213"/>
      <point x="111" y="746" type="curve" smooth="yes"/>
      <point x="111" y="280"/>
      <point x="419" y="-17"/>
    </contour>
  </outline>
</glyph>
<glyph name="degree" format="1">
  <advance width="592"/>
  <unicode hex="00B0"/>
  <outline>
    <contour>
      <point x="300" y="679" type="curve" smooth="yes"/>
      <point x="229" y="679"/>
      <point x="174" y="742"/>
      <point x="174" y="812" type="curve" smooth="yes"/>
      <point x="174" y="883"/>
      <point x="226" y="944"/>
      <point x="300" y="944" type="curve" smooth="yes"/>
      <point x="376" y="944"/>
      <point x="423" y="883"/>
      <point x="423" y="812" type="curve" smooth="yes"/>
      <point x="423" y="740"/>
      <point x="375" y="679"/>
    </contour>
    <contour>
      <point x="305" y="614" type="curve" smooth="yes"/>
      <point x="421" y="614"/>
      <point x="490" y="702"/>
      <point x="490" y="813" type="curve" smooth="yes"/>
      <point x="490" y="924"/>
      <point x="416" y="1011"/>
      <point x="302" y="1011" type="curve" smooth="yes"/>
      <point x="184" y="1011"/>
      <point x="105" y="928"/>
      <point x="105" y="810" type="curve" smooth="yes"/>
      <point x="105" y="692"/>
      <point x="190" y="614"/>
    </contour>
  </outline>
</glyph>
<glyph name="cedilla" format="1">
  <advance width="532"/>
  <unicode hex="00B8"/>
  <outline>
    <contour>
      <point x="197" y="0" type="move" name="_bot"/>
    </contour>
    <contour>
      <point x="211" y="-393" type="curve" smooth="yes"/>
      <point x="330" y="-393"/>
      <point x="403" y="-324"/>
      <point x="403" y="-228" type="curve"/>
      <point x="403" y="-151"/>
      <point x="345" y="-73"/>
      <point x="220" y="-67" type="curve"/>
      <point x="234" y="8" type="line"/>
      <point x="157" y="8" type="line"/>
      <point x="144" y="-111" type="line"/>
      <point x="264" y="-116"/>
      <point x="301" y="-166"/>
      <point x="301" y="-217" type="curve" smooth="yes"/>
      <point x="301" y="-286"/>
      <point x="257" y="-316"/>
      <point x="193" y="-316" type="curve" smooth="yes"/>
      <point x="160" y="-316"/>
      <point x="122" y="-306"/>
      <point x="82" y="-290" type="curve"/>
      <point x="65" y="-355" type="line"/>
      <point x="111" y="-380"/>
      <point x="163" y="-393"/>
    </contour>
  </outline>
</glyph>
<glyph name="uni00B9" format="1">
  <advance width="957"/>
  <unicode hex="00B9"/>
  <outline>
    <contour>
      <point x="503" y="566" type="line"/>
      <point x="624" y="566" type="line"/>
      <point x="624" y="1617" type="line"/>
      <point x="509" y="1629" type="line"/>
      <point x="280" y="1526" type="line"/>
      <point x="312" y="1442" type="line"/>
      <point x="503" y="1532" type="line"/>
    </contour>
  </outline>
</glyph>
<glyph name="onequarter" format="1">
  <advance width="1803"/>
  <unicode hex="00BC"/>
  <outline>
    <contour>
      <point x="1552" y="-12" type="line"/>
      <point x="1552" y="253" type="line"/>
      <point x="1697" y="253" type="line"/>
      <point x="1697" y="331" type="line"/>
      <point x="1552" y="331" type="line"/>
      <point x="1552" y="1039" type="line"/>
      <point x="1449" y="1061" type="line"/>
      <point x="935" y="342" type="line"/>
      <point x="952" y="253" type="line"/>
      <point x="1442" y="253" type="line"/>
      <point x="1442" y="0" type="line"/>
    </contour>
    <contour>
      <point x="339" y="620" type="line"/>
      <point x="456" y="620" type="line"/>
      <point x="456" y="1500" type="line"/>
      <point x="352" y="1521" type="line"/>
      <point x="133" y="1424" type="line"/>
      <point x="168" y="1345" type="line"/>
      <point x="339" y="1422" type="line"/>
    </contour>
    <contour>
      <point x="409" y="-23" type="line"/>
      <point x="1383" y="1520" type="line"/>
      <point x="1299" y="1571" type="line"/>
      <point x="326" y="28" type="line"/>
    </contour>
    <contour>
      <point x="1043" y="331" type="line"/>
      <point x="1442" y="904" type="line"/>
      <point x="1442" y="331" type="line"/>
    </contour>
  </outline>
</glyph>
<glyph name="threequarters" format="1">
  <advance width="2038"/>
  <unicode hex="00BE"/>
  <outline>
    <contour>
      <point x="417" y="579" type="curve" smooth="yes"/>
      <point x="574" y="579"/>
      <point x="724" y="654"/>
      <point x="724" y="835" type="curve" smooth="yes"/>
      <point x="724" y="971"/>
      <point x="648" y="1060"/>
      <point x="507" y="1090" type="curve"/>
      <point x="617" y="1106"/>
      <point x="694" y="1183"/>
      <point x="694" y="1307" type="curve" smooth="yes"/>
      <point x="694" y="1476"/>
      <point x="559" y="1543"/>
      <point x="403" y="1543" type="curve" smooth="yes"/>
      <point x="301" y="1543"/>
      <point x="215" y="1507"/>
      <point x="155" y="1474" type="curve"/>
      <point x="185" y="1391" type="line"/>
      <point x="246" y="1427"/>
      <point x="317" y="1456"/>
      <point x="400" y="1456" type="curve" smooth="yes"/>
      <point x="500" y="1456"/>
      <point x="588" y="1427"/>
      <point x="588" y="1300" type="curve" smooth="yes"/>
      <point x="588" y="1161"/>
      <point x="479" y="1133"/>
      <point x="375" y="1134" type="curve"/>
      <point x="374" y="1134"/>
      <point x="371" y="1086"/>
      <point x="371" y="1053" type="curve"/>
      <point x="516" y="1034"/>
      <point x="616" y="985"/>
      <point x="616" y="844" type="curve" smooth="yes"/>
      <point x="616" y="715"/>
      <point x="531" y="664"/>
      <point x="414" y="664" type="curve" smooth="yes"/>
      <point x="337" y="664"/>
      <point x="248" y="683"/>
      <point x="175" y="721" type="curve"/>
      <point x="144" y="639" type="line"/>
      <point x="226" y="599"/>
      <point x="327" y="579"/>
    </contour>
    <contour>
      <point x="1732" y="-12" type="line"/>
      <point x="1732" y="253" type="line"/>
      <point x="1877" y="253" type="line"/>
      <point x="1877" y="331" type="line"/>
      <point x="1732" y="331" type="line"/>
      <point x="1732" y="1061" type="line"/>
      <point x="1637" y="1084" type="line"/>
      <point x="1111" y="342" type="line"/>
      <point x="1129" y="253" type="line"/>
      <point x="1627" y="253" type="line"/>
      <point x="1627" y="0" type="line"/>
    </contour>
    <contour>
      <point x="582" y="-23" type="line"/>
      <point x="1556" y="1520" type="line"/>
      <point x="1470" y="1571" type="line"/>
      <point x="498" y="28" type="line"/>
    </contour>
    <contour>
      <point x="1219" y="331" type="line"/>
      <point x="1627" y="919" type="line"/>
      <point x="1627" y="331" type="line"/>
    </contour>
  </outline>
</glyph>
<glyph name="Thorn" format="1">
  <advance width="1277"/>
  <unicode hex="00DE"/>
  <outline>
    <contour>
      <point x="164" y="0" type="line"/>
      <point x="298" y="0" type="line"/>
      <point x="298" y="387" type="line"/>
      <point x="518" y="387" type="line" smooth="yes"/>
      <point x="829" y="386"/>
      <point x="1176" y="414"/>
      <point x="1176" y="806" type="curve" smooth="yes"/>
      <point x="1176" y="1185"/>
      <point x="868" y="1215"/>
      <point x="595" y="1215" type="curve" smooth="yes"/>
      <point x="298" y="1215" type="line"/>
      <point x="298" y="1500" type="line"/>
      <point x="164" y="1500" type="line"/>
    </contour>
    <contour>
      <point x="298" y="494" type="line"/>
      <point x="298" y="1109" type="line"/>
      <point x="601" y="1109" type="line" smooth="yes"/>
      <point x="858" y="1109"/>
      <point x="1044" y="1085"/>
      <point x="1044" y="796" type="curve" smooth="yes"/>
      <point x="1044" y="515"/>
      <point x="811" y="494"/>
      <point x="574" y="494" type="curve" smooth="yes"/>
    </contour>
  </outline>
</glyph>
<glyph name="germandbls" format="1">
  <advance width="1218"/>
  <unicode hex="00DF"/>
  <outline>
    <contour>
      <point x="460" y="-92" type="line"/>
      <point x="781" y="-92"/>
      <point x="1136" y="-43"/>
      <point x="1136" y="388" type="curve" smooth="yes"/>
      <point x="1136" y="656"/>
      <point x="952" y="812"/>
      <point x="720" y="812" type="curve"/>
      <point x="868" y="831"/>
      <point x="971" y="948"/>
      <point x="971" y="1132" type="curve" smooth="yes"/>
      <point x="971" y="1440"/>
      <point x="767" y="1509"/>
      <point x="551" y="1509" type="curve" smooth="yes"/>
      <point x="277" y="1509"/>
      <point x="143" y="1384"/>
      <point x="143" y="1034" type="curve" smooth="yes"/>
      <point x="145" y="-3" type="line"/>
      <point x="279" y="7" type="line"/>
      <point x="278" y="1022" type="line" smooth="yes"/>
      <point x="278" y="1285"/>
      <point x="333" y="1403"/>
      <point x="555" y="1403" type="curve" smooth="yes"/>
      <point x="753" y="1403"/>
      <point x="847" y="1319"/>
      <point x="847" y="1149" type="curve" smooth="yes"/>
      <point x="847" y="901"/>
      <point x="692" y="852"/>
      <point x="509" y="855" type="curve"/>
      <point x="503" y="855"/>
      <point x="422" y="855"/>
      <point x="415" y="856" type="curve"/>
      <point x="415" y="822"/>
      <point x="418" y="762"/>
      <point x="419" y="762" type="curve"/>
      <point x="607" y="762"/>
      <point x="1012" y="754"/>
      <point x="1012" y="405" type="curve" smooth="yes"/>
      <point x="1012" y="32"/>
      <point x="754" y="12"/>
      <point x="461" y="12" type="curve"/>
    </contour>
  </outline>
</glyph>
<glyph name="eth" format="1">
  <advance width="1084"/>
  <unicode hex="00F0"/>
  <outline>
    <contour>
      <point x="511" y="-18" type="curve" smooth="yes"/>
      <point x="848" y="-18"/>
      <point x="986" y="262"/>
      <point x="986" y="622" type="curve" smooth="yes"/>
      <point x="986" y="912"/>
      <point x="915" y="1116"/>
      <point x="755" y="1338" type="curve"/>
      <point x="1012" y="1412" type="line"/>
      <point x="972" y="1481" type="line"/>
      <point x="704" y="1404" type="line"/>
      <point x="608" y="1513"/>
      <point x="525" y="1575"/>
      <point x="425" y="1632" type="curve"/>
      <point x="363" y="1555" type="line"/>
      <point x="450" y="1505"/>
      <point x="528" y="1441"/>
      <point x="592" y="1370" type="curve"/>
      <point x="385" y="1311" type="line"/>
      <point x="424" y="1242" type="line"/>
      <point x="644" y="1305" type="line"/>
      <point x="731" y="1209"/>
      <point x="820" y="1053"/>
      <point x="849" y="916" type="curve"/>
      <point x="770" y="1037"/>
      <point x="656" y="1117"/>
      <point x="497" y="1117" type="curve" smooth="yes"/>
      <point x="204" y="1117"/>
      <point x="55" y="858"/>
      <point x="55" y="547" type="curve" smooth="yes"/>
      <point x="55" y="228"/>
      <point x="207" y="-18"/>
    </contour>
    <contour>
      <point x="509" y="82" type="curve" smooth="yes"/>
      <point x="275" y="82"/>
      <point x="182" y="299"/>
      <point x="182" y="548" type="curve" smooth="yes"/>
      <point x="182" y="815"/>
      <point x="276" y="1016"/>
      <point x="517" y="1016" type="curve" smooth="yes"/>
      <point x="734" y="1016"/>
      <point x="856" y="846"/>
      <point x="856" y="611" type="curve" smooth="yes"/>
      <point x="856" y="321"/>
      <point x="767" y="82"/>
    </contour>
  </outline>
</glyph>
<glyph name="oslash" format="1">
  <advance width="1109"/>
  <unicode hex="00F8"/>
  <outline>
    <contour>
      <point x="334" y="-193" type="line"/>
      <point x="401" y="-1" type="line"/>
      <point x="449" y="-15"/>
      <point x="498" y="-20"/>
      <point x="545" y="-20" type="curve" smooth="yes"/>
      <point x="882" y="-20"/>
      <point x="1034" y="245"/>
      <point x="1034" y="546" type="curve" smooth="yes"/>
      <point x="1034" y="743"/>
      <point x="968" y="962"/>
      <point x="766" y="1070" type="curve"/>
      <point x="831" y="1257" type="line"/>
      <point x="761" y="1284" type="line"/>
      <point x="697" y="1097" type="line"/>
      <point x="648" y="1112"/>
      <point x="595" y="1118"/>
      <point x="545" y="1118" type="curve" smooth="yes"/>
      <point x="209" y="1118"/>
      <point x="59" y="843"/>
      <point x="59" y="546" type="curve" smooth="yes"/>
      <point x="59" y="351"/>
      <point x="121" y="130"/>
      <point x="325" y="27" type="curve"/>
      <point x="256" y="-167" type="line"/>
    </contour>
    <contour>
      <point x="360" y="127" type="line"/>
      <point x="218" y="215"/>
      <point x="186" y="395"/>
      <point x="186" y="546" type="curve" smooth="yes"/>
      <point x="186" y="754"/>
      <point x="260" y="1013"/>
      <point x="545" y="1013" type="curve" smooth="yes"/>
      <point x="583" y="1013"/>
      <point x="623" y="1009"/>
      <point x="660" y="996" type="curve"/>
    </contour>
    <contour>
      <point x="545" y="84" type="curve" smooth="yes"/>
      <point x="509" y="84"/>
      <point x="471" y="87"/>
      <point x="434" y="97" type="curve"/>
      <point x="731" y="968" type="line"/>
      <point x="875" y="875"/>
      <point x="905" y="686"/>
      <point x="905" y="546" type="curve" smooth="yes"/>
      <point x="905" y="336"/>
      <point x="832" y="84"/>
    </contour>
  </outline>
</glyph>
<glyph name="thorn" format="1">
  <advance width="1175"/>
  <unicode hex="00FE"/>
  <outline>
    <contour>
      <point x="138" y="-477" type="line"/>
      <point x="269" y="-456" type="line"/>
      <point x="269" y="127" type="line"/>
      <point x="349" y="23"/>
      <point x="474" y="-20"/>
      <point x="608" y="-20" type="curve" smooth="yes"/>
      <point x="936" y="-20"/>
      <point x="1062" y="275"/>
      <point x="1062" y="549" type="curve" smooth="yes"/>
      <point x="1062" y="833"/>
      <point x="935" y="1118"/>
      <point x="614" y="1118" type="curve" smooth="yes"/>
      <point x="478" y="1118"/>
      <point x="349" y="1053"/>
      <point x="268" y="946" type="curve"/>
      <point x="268" y="1494" type="line"/>
      <point x="138" y="1494" type="line"/>
    </contour>
    <contour>
      <point x="608" y="84" type="curve" smooth="yes"/>
      <point x="483" y="84"/>
      <point x="354" y="134"/>
      <point x="272" y="230" type="curve"/>
      <point x="280" y="847" type="line"/>
      <point x="365" y="955"/>
      <point x="485" y="1015"/>
      <point x="615" y="1015" type="curve" smooth="yes"/>
      <point x="887" y="1015"/>
      <point x="931" y="718"/>
      <point x="931" y="526" type="curve" smooth="yes"/>
      <point x="931" y="333"/>
      <point x="861" y="84"/>
    </contour>
  </outline>
</glyph>
<glyph name="Hbar" format="1">
  <advance width="1442"/>
  <unicode hex="0126"/>
  <outline>
    <contour>
      <point x="31" y="1204" type="line"/>
      <point x="1405" y="1204" type="line"/>
      <point x="1405" y="1283" type="line"/>
      <point x="31" y="1283" type="line"/>
    </contour>
    <component base="H"/>
  </outline>
</glyph>
<glyph name="hbar" format="1">
  <advance width="1184"/>
  <unicode hex="0127"/>
  <outline>
    <contour>
      <point x="146" y="0" type="line"/>
      <point x="279" y="0" type="line"/>
      <point x="279" y="838" type="line"/>
      <point x="382" y="943"/>
      <point x="531" y="1013"/>
      <point x="663" y="1013" type="curve" smooth="yes"/>
      <point x="878" y="1013"/>
      <point x="917" y="857"/>
      <point x="917" y="678" type="curve" smooth="yes"/>
      <point x="917" y="0" type="line"/>
      <point x="1049" y="0" type="line"/>
      <point x="1049" y="682" type="line" smooth="yes"/>
      <point x="1049" y="926"/>
      <point x="970" y="1116"/>
      <point x="677" y="1116" type="curve" smooth="yes"/>
      <point x="518" y="1116"/>
      <point x="393" y="1044"/>
      <point x="279" y="937" type="curve"/>
      <point x="279" y="1288" type="line"/>
      <point x="631" y="1288" type="line"/>
      <point x="631" y="1374" type="line"/>
      <point x="279" y="1374" type="line"/>
      <point x="279" y="1510" type="line"/>
      <point x="146" y="1481" type="line"/>
      <point x="146" y="1374" type="line"/>
      <point x="20" y="1374" type="line"/>
      <point x="20" y="1288" type="line"/>
      <point x="146" y="1288" type="line"/>
    </contour>
  </outline>
</glyph>
<glyph name="Lslash" format="1">
  <advance width="1098"/>
  <unicode hex="0141"/>
  <outline>
    <contour>
      <point x="-22" y="465" type="line"/>
      <point x="582" y="872" type="line"/>
      <point x="582" y="992" type="line"/>
      <point x="-22" y="585" type="line"/>
    </contour>
    <component base="L"/>
  </outline>
</glyph>
<glyph name="Eng" format="1">
  <advance width="1485"/>
  <unicode hex="014A"/>
  <outline>
    <contour>
      <point x="1330" y="1485" type="line"/>
      <point x="1207" y="1485" type="line"/>
      <point x="1207" y="289" type="line"/>
      <point x="360" y="1485" type="line"/>
      <point x="175" y="1485" type="line"/>
      <point x="175" y="0" type="line"/>
      <point x="297" y="0" type="line"/>
      <point x="297" y="1365" type="line"/>
      <point x="1208" y="79" type="line" smooth="yes"/>
      <point x="1208" y="-222"/>
      <point x="1174" y="-312"/>
      <point x="864" y="-347" type="curve"/>
      <point x="899" y="-448" type="line"/>
      <point x="1224" y="-413"/>
      <point x="1325" y="-295"/>
      <point x="1330" y="44" type="curve" smooth="yes"/>
    </contour>
  </outline>
</glyph>
<glyph name="uni0237" format="1">
  <advance width="679"/>
  <unicode hex="0237"/>
  <outline>
    <contour>
      <point x="449" y="1098" type="move" name="top"/>
    </contour>
    <contour>
      <point x="235" y="-357" type="line"/>
      <point x="457" y="-302"/>
      <point x="514" y="-59"/>
      <point x="514" y="132" type="curve" smooth="yes"/>
      <point x="514" y="1098" type="line"/>
      <point x="377" y="1098" type="line"/>
      <point x="377" y="605"/>
      <point x="377" y="123"/>
      <point x="377" y="109" type="curve" smooth="yes"/>
      <point x="377" y="-52"/>
      <point x="365" y="-176"/>
      <point x="207" y="-280" type="curve"/>
    </contour>
  </outline>
</glyph>
<glyph name="circumflex" format="1">
  <advance width="756"/>
  <unicode hex="02C6"/>
  <outline>
    <contour>
      <point x="377" y="1097" type="move" name="_top"/>
    </contour>
    <contour>
      <point x="85" y="1280" type="line"/>
      <point x="193" y="1280" type="line"/>
      <point x="373" y="1527" type="line"/>
      <point x="553" y="1280" type="line"/>
      <point x="661" y="1280" type="line"/>
      <point x="416" y="1628" type="line"/>
      <point x="329" y="1628" type="line"/>
    </contour>
  </outline>
</glyph>
<glyph name="ring" format="1">
  <advance width="572"/>
  <unicode hex="02DA"/>
  <outline>
    <contour>
      <point x="301" y="1097" type="move" name="_top"/>
    </contour>
    <contour>
      <point x="286" y="1498" type="move" name="top"/>
    </contour>
    <contour>
      <point x="300" y="1292" type="curve" smooth="yes"/>
      <point x="223" y="1292"/>
      <point x="175" y="1342"/>
      <point x="175" y="1421" type="curve" smooth="yes"/>
      <point x="175" y="1500"/>
      <point x="223" y="1549"/>
      <point x="300" y="1549" type="curve" smooth="yes"/>
      <point x="376" y="1549"/>
      <point x="424" y="1500"/>
      <point x="424" y="1421" type="curve" smooth="yes"/>
      <point x="424" y="1342"/>
      <point x="376" y="1292"/>
    </contour>
    <contour>
      <point x="300" y="1227" type="curve" smooth="yes"/>
      <point x="420" y="1227"/>
      <point x="496" y="1301"/>
      <point x="496" y="1421" type="curve" smooth="yes"/>
      <point x="496" y="1540"/>
      <point x="420" y="1615"/>
      <point x="300" y="1615" type="curve" smooth="yes"/>
      <point x="179" y="1615"/>
      <point x="103" y="1540"/>
      <point x="103" y="1421" type="curve" smooth="yes"/>
      <point x="103" y="1301"/>
      <point x="179" y="1227"/>
    </contour>
  </outline>
</glyph>
<glyph name="ogonek" format="1">
  <advance width="624"/>
  <unicode hex="02DB"/>
  <outline>
    <contour>
      <point x="409" y="-447" type="curve" smooth="yes"/>
      <point x="434" y="-447"/>
      <point x="466" y="-445"/>
      <point x="493" y="-440" type="curve"/>
      <point x="493" y="-350" type="line"/>
      <point x="467" y="-354"/>
      <point x="443" y="-356"/>
      <point x="420" y="-356" type="curve" smooth="yes"/>
      <point x="337" y="-356"/>
      <point x="288" y="-321"/>
      <point x="288" y="-244" type="curve" smooth="yes"/>
      <point x="288" y="-168"/>
      <point x="338" y="-86"/>
      <point x="429" y="0" type="curve"/>
      <point x="350" y="0" type="line"/>
      <point x="248" y="-83"/>
      <point x="187" y="-184"/>
      <point x="187" y="-270" type="curve" smooth="yes"/>
      <point x="187" y="-385"/>
      <point x="276" y="-447"/>
    </contour>
  </outline>
</glyph>
<glyph name="tilde" format="1">
  <advance width="878"/>
  <unicode hex="02DC"/>
  <outline>
    <contour>
      <point x="445" y="1097" type="move" name="_top"/>
    </contour>
    <contour>
      <point x="136" y="1285" type="curve"/>
      <point x="193" y="1285" type="line"/>
      <point x="193" y="1348"/>
      <point x="221" y="1369"/>
      <point x="266" y="1369" type="curve" smooth="yes"/>
      <point x="340" y="1370"/>
      <point x="459" y="1312"/>
      <point x="561" y="1294" type="curve" smooth="yes"/>
      <point x="674" y="1275"/>
      <point x="731" y="1326"/>
      <point x="731" y="1475" type="curve"/>
      <point x="674" y="1475" type="line"/>
      <point x="674" y="1414"/>
      <point x="645" y="1394"/>
      <point x="600" y="1394" type="curve" smooth="yes"/>
      <point x="526" y="1395"/>
      <point x="407" y="1451"/>
      <point x="310" y="1469" type="curve" smooth="yes"/>
      <point x="195" y="1489"/>
      <point x="136" y="1440"/>
    </contour>
  </outline>
</glyph>
<glyph name="uni0307" format="1">
  <advance width="489"/>
  <unicode hex="0307"/>
  <outline>
    <contour>
      <point x="244" y="1097" type="move" name="_top"/>
    </contour>
    <contour>
      <point x="244" y="1323" type="curve" smooth="yes"/>
      <point x="292" y="1323"/>
      <point x="322" y="1357"/>
      <point x="322" y="1411" type="curve" smooth="yes"/>
      <point x="322" y="1465"/>
      <point x="292" y="1498"/>
      <point x="244" y="1498" type="curve" smooth="yes"/>
      <point x="192" y="1498"/>
      <point x="160" y="1465"/>
      <point x="160" y="1411" type="curve" smooth="yes"/>
      <point x="160" y="1357"/>
      <point x="192" y="1323"/>
    </contour>
  </outline>
</glyph>
<glyph name="uni0311" format="1">
  <advance width="637"/>
  <unicode hex="0311"/>
  <outline>
    <contour>
      <point x="328" y="1097" type="move" name="_top"/>
    </contour>
    <contour>
      <point x="86" y="1248" type="curve"/>
      <point x="180" y="1248" type="line"/>
      <point x="180" y="1329"/>
      <point x="229" y="1372"/>
      <point x="323" y="1372" type="curve" smooth="yes"/>
      <point x="413" y="1372"/>
      <point x="462" y="1329"/>
      <point x="462" y="1248" type="curve"/>
      <point x="555" y="1248" type="line"/>
      <point x="555" y="1388"/>
      <point x="473" y="1460"/>
      <point x="324" y="1460" type="curve" smooth="yes"/>
      <point x="170" y="1460"/>
      <point x="86" y="1388"/>
    </contour>
  </outline>
</glyph>
<glyph name="uni0326" format="1">
  <advance width="526"/>
  <unicode hex="0326"/>
  <outline>
    <contour>
      <point x="291" y="0" type="move" name="_bot"/>
    </contour>
    <contour>
      <point x="199" y="-578" type="line"/>
      <point x="306" y="-546"/>
      <point x="357" y="-465"/>
      <point x="357" y="-333" type="curve" smooth="yes"/>
      <point x="357" y="-135" type="line"/>
      <point x="225" y="-135" type="line"/>
      <point x="225" y="-356" type="line"/>
      <point x="288" y="-356" type="line"/>
      <point x="289" y="-450"/>
      <point x="251" y="-512"/>
      <point x="177" y="-536" type="curve"/>
    </contour>
  </outline>
</glyph>
<glyph name="Sigma" format="1">
  <advance width="1262"/>
  <unicode hex="03A3"/>
  <outline>
    <contour>
      <point x="127" y="0" type="line"/>
      <point x="1151" y="0" type="line"/>
      <point x="1151" y="106" type="line"/>
      <point x="262" y="106" type="line"/>
      <point x="960" y="723" type="line"/>
      <point x="960" y="788" type="line"/>
      <point x="259" y="1395" type="line"/>
      <point x="1134" y="1395" type="line"/>
      <point x="1134" y="1500" type="line"/>
      <point x="127" y="1500" type="line"/>
      <point x="127" y="1363" type="line"/>
      <point x="822" y="753" type="line"/>
      <point x="127" y="124" type="line"/>
    </contour>
  </outline>
</glyph>
<glyph name="pi" format="1">
  <advance width="1646"/>
  <unicode hex="03C0"/>
  <outline>
    <contour>
      <point x="1203" y="-9" type="curve" smooth="yes"/>
      <point x="1258" y="-9"/>
      <point x="1318" y="5"/>
      <point x="1362" y="31" type="curve"/>
      <point x="1362" y="113" type="line"/>
      <point x="1328" y="101"/>
      <point x="1278" y="86"/>
      <point x="1243" y="86" type="curve" smooth="yes"/>
      <point x="1127" y="86"/>
      <point x="1093" y="180"/>
      <point x="1093" y="400" type="curve" smooth="yes"/>
      <point x="1093" y="559"/>
      <point x="1113" y="726"/>
      <point x="1146" y="985" type="curve"/>
      <point x="1399" y="985" type="line"/>
      <point x="1399" y="1097" type="line"/>
      <point x="513" y="1097" type="line" smooth="yes"/>
      <point x="285" y="1097"/>
      <point x="216" y="1026"/>
      <point x="212" y="829" type="curve"/>
      <point x="281" y="829" type="line"/>
      <point x="297" y="926"/>
      <point x="344" y="985"/>
      <point x="432" y="985" type="curve" smooth="yes"/>
      <point x="599" y="985" type="line"/>
      <point x="480" y="369" type="line" smooth="yes"/>
      <point x="434" y="132"/>
      <point x="348" y="81"/>
      <point x="195" y="76" type="curve"/>
      <point x="195" y="3" type="line"/>
      <point x="504" y="5"/>
      <point x="558" y="116"/>
      <point x="588" y="337" type="curve" smooth="yes"/>
      <point x="676" y="985" type="line"/>
      <point x="1056" y="985" type="line"/>
      <point x="1022" y="715"/>
      <point x="984" y="477"/>
      <point x="984" y="309" type="curve" smooth="yes"/>
      <point x="984" y="103"/>
      <point x="1038" y="-9"/>
    </contour>
  </outline>
</glyph>
<glyph name="endash" format="1">
  <advance width="652"/>
  <unicode hex="2013"/>
  <outline>
    <contour>
      <point x="136" y="516" type="line"/>
      <point x="517" y="516" type="line"/>
      <point x="517" y="620" type="line"/>
      <point x="136" y="620" type="line"/>
    </contour>
  </outline>
</glyph>
<glyph name="emdash" format="1">
  <advance width="883"/>
  <unicode hex="2014"/>
  <outline>
    <contour>
      <point x="104" y="516" type="line"/>
      <point x="782" y="516" type="line"/>
      <point x="782" y="620" type="line"/>
      <point x="104" y="620" type="line"/>
    </contour>
  </outline>
</glyph>
<glyph name="quoteleft" format="1">
  <advance width="540"/>
  <unicode hex="2018"/>
  <outline>
    <contour>
      <point x="179" y="1051" type="curve"/>
      <point x="361" y="1051" type="line"/>
      <point x="361" y="1274" type="line"/>
      <point x="269" y="1274" type="line"/>
      <point x="269" y="1387"/>
      <point x="294" y="1429"/>
      <point x="372" y="1458" type="curve"/>
      <point x="342" y="1517" type="line"/>
      <point x="220" y="1482"/>
      <point x="179" y="1392"/>
      <point x="179" y="1277" type="curve" smooth="yes"/>
      <point x="179" y="1270"/>
      <point x="179" y="1147"/>
    </contour>
  </outline>
</glyph>
<glyph name="quoteright" format="1">
  <advance width="552"/>
  <unicode hex="2019"/>
  <outline>
    <contour>
      <point x="209" y="1034" type="line"/>
      <point x="330" y="1069"/>
      <point x="371" y="1159"/>
      <point x="371" y="1273" type="curve" smooth="yes"/>
      <point x="371" y="1281"/>
      <point x="371" y="1404"/>
      <point x="371" y="1501" type="curve"/>
      <point x="190" y="1501" type="line"/>
      <point x="190" y="1277" type="line"/>
      <point x="281" y="1277" type="line"/>
      <point x="281" y="1164"/>
      <point x="257" y="1122"/>
      <point x="178" y="1093" type="curve"/>
    </contour>
  </outline>
</glyph>
<glyph name="quotedblbase" format="1">
  <advance width="812"/>
  <unicode hex="201E"/>
  <outline>
    <contour>
      <point x="178" y="-237" type="line"/>
      <point x="299" y="-202"/>
      <point x="341" y="-112"/>
      <point x="341" y="3" type="curve" smooth="yes"/>
      <point x="341" y="10"/>
      <point x="341" y="134"/>
      <point x="341" y="230" type="curve"/>
      <point x="159" y="230" type="line"/>
      <point x="159" y="6" type="line"/>
      <point x="251" y="6" type="line"/>
      <point x="251" y="-107"/>
      <point x="227" y="-149"/>
      <point x="148" y="-178" type="curve"/>
    </contour>
    <contour>
      <point x="471" y="-237" type="line"/>
      <point x="592" y="-202"/>
      <point x="634" y="-112"/>
      <point x="634" y="3" type="curve" smooth="yes"/>
      <point x="634" y="10"/>
      <point x="634" y="134"/>
      <point x="634" y="230" type="curve"/>
      <point x="453" y="230" type="line"/>
      <point x="453" y="6" type="line"/>
      <point x="544" y="6" type="line"/>
      <point x="545" y="-107"/>
      <point x="520" y="-149"/>
      <point x="441" y="-178" type="curve"/>
    </contour>
  </outline>
</glyph>
<glyph name="dagger" format="1">
  <advance width="1051"/>
  <unicode hex="2020"/>
  <outline>
    <contour>
      <point x="445" y="-188" type="line"/>
      <point x="568" y="-188" type="line"/>
      <point x="568" y="968" type="line"/>
      <point x="855" y="968" type="line"/>
      <point x="855" y="1067" type="line"/>
      <point x="569" y="1067" type="line"/>
      <point x="569" y="1500" type="line"/>
      <point x="445" y="1500" type="line"/>
      <point x="445" y="1067" type="line"/>
      <point x="158" y="1067" type="line"/>
      <point x="158" y="968" type="line"/>
      <point x="445" y="968" type="line"/>
    </contour>
  </outline>
</glyph>
<glyph name="daggerdbl" format="1">
  <advance width="1012"/>
  <unicode hex="2021"/>
  <outline>
    <contour>
      <point x="445" y="-188" type="line"/>
      <point x="568" y="-188" type="line"/>
      <point x="568" y="269" type="line"/>
      <point x="854" y="269" type="line"/>
      <point x="854" y="366" type="line"/>
      <point x="568" y="366" type="line"/>
      <point x="568" y="968" type="line"/>
      <point x="855" y="968" type="line"/>
      <point x="855" y="1067" type="line"/>
      <point x="569" y="1067" type="line"/>
      <point x="569" y="1500" type="line"/>
      <point x="445" y="1500" type="line"/>
      <point x="445" y="1067" type="line"/>
      <point x="158" y="1067" type="line"/>
      <point x="158" y="968" type="line"/>
      <point x="445" y="968" type="line"/>
      <point x="445" y="366" type="line"/>
      <point x="158" y="366" type="line"/>
      <point x="158" y="269" type="line"/>
      <point x="445" y="269" type="line"/>
    </contour>
  </outline>
</glyph>
<glyph name="uni203E" format="1">
  <advance width="906"/>
  <unicode hex="203E"/>
  <outline>
    <contour>
      <point x="132" y="115" type="line"/>
      <point x="772" y="115" type="line"/>
      <point x="772" y="224" type="line"/>
      <point x="132" y="224" type="line"/>
    </contour>
  </outline>
</glyph>
<glyph name="fraction" format="1">
  <advance width="820"/>
  <unicode hex="2044"/>
  <outline>
    <contour>
      <point x="92" y="-17" type="line"/>
      <point x="821" y="1517" type="line"/>
      <point x="727" y="1517" type="line"/>
      <point x="0" y="-17" type="line"/>
    </contour>
  </outline>
</glyph>
<glyph name="uni2074" format="1">
  <advance width="1078"/>
  <unicode hex="2074"/>
  <outline>
    <contour>
      <point x="672" y="499" type="line"/>
      <point x="775" y="510" type="line"/>
      <point x="775" y="757" type="line"/>
      <point x="924" y="757" type="line"/>
      <point x="924" y="841" type="line"/>
      <point x="775" y="841" type="line"/>
      <point x="775" y="1591" type="line"/>
      <point x="677" y="1614" type="line"/>
      <point x="142" y="836" type="line"/>
      <point x="160" y="757" type="line"/>
      <point x="672" y="757" type="line"/>
    </contour>
    <contour>
      <point x="259" y="840" type="line"/>
      <point x="672" y="1447" type="line"/>
      <point x="672" y="840" type="line"/>
    </contour>
  </outline>
</glyph>
<glyph name="Euro" format="1">
  <advance width="1244"/>
  <unicode hex="20AC"/>
  <outline>
    <contour>
      <point x="-70" y="570" type="line"/>
      <point x="757" y="570" type="line"/>
      <point x="757" y="655" type="line"/>
      <point x="222" y="655" type="line"/>
      <point x="222" y="878" type="line"/>
      <point x="757" y="878" type="line"/>
      <point x="757" y="962" type="line"/>
      <point x="-70" y="962" type="line"/>
      <point x="-70" y="878" type="line"/>
      <point x="164" y="878" type="line"/>
      <point x="164" y="655" type="line"/>
      <point x="-70" y="655" type="line"/>
    </contour>
    <component base="C"/>
  </outline>
</glyph>
<glyph name="trademark" format="1">
  <advance width="1395"/>
  <unicode hex="2122"/>
  <outline>
    <contour>
      <point x="624" y="817" type="line"/>
      <point x="723" y="817" type="line"/>
      <point x="723" y="1375" type="line"/>
      <point x="909" y="842" type="line"/>
      <point x="1035" y="842" type="line"/>
      <point x="1222" y="1375" type="line"/>
      <point x="1222" y="817" type="line"/>
      <point x="1320" y="817" type="line"/>
      <point x="1320" y="1501" type="line"/>
      <point x="1165" y="1501" type="line"/>
      <point x="974" y="934" type="line"/>
      <point x="779" y="1501" type="line"/>
      <point x="624" y="1501" type="line"/>
    </contour>
    <contour>
      <point x="232" y="817" type="line"/>
      <point x="333" y="817" type="line"/>
      <point x="333" y="1424" type="line"/>
      <point x="515" y="1424" type="line"/>
      <point x="515" y="1501" type="line"/>
      <point x="51" y="1501" type="line"/>
      <point x="51" y="1424" type="line"/>
      <point x="232" y="1424" type="line"/>
    </contour>
  </outline>
</glyph>
<glyph name="estimated" format="1">
  <advance width="1101"/>
  <unicode hex="212E"/>
  <outline>
    <contour>
      <point x="603" y="95" type="curve" smooth="yes"/>
      <point x="718" y="95"/>
      <point x="875" y="137"/>
      <point x="963" y="213" type="curve"/>
      <point x="928" y="285" type="line"/>
      <point x="861" y="233"/>
      <point x="747" y="178"/>
      <point x="620" y="178" type="curve" smooth="yes"/>
      <point x="504" y="178"/>
      <point x="408" y="217"/>
      <point x="340" y="292" type="curve"/>
      <point x="340" y="665" type="line"/>
      <point x="990" y="665" type="line"/>
      <point x="993" y="679"/>
      <point x="1000" y="712"/>
      <point x="1000" y="754" type="curve" smooth="yes"/>
      <point x="1000" y="1017"/>
      <point x="871" y="1226"/>
      <point x="591" y="1226" type="curve" smooth="yes"/>
      <point x="268" y="1226"/>
      <point x="107" y="971"/>
      <point x="107" y="664" type="curve" smooth="yes"/>
      <point x="107" y="348"/>
      <point x="272" y="95"/>
    </contour>
    <contour>
      <point x="340" y="739" type="line"/>
      <point x="340" y="1045" type="line"/>
      <point x="398" y="1105"/>
      <point x="480" y="1142"/>
      <point x="593" y="1142" type="curve" smooth="yes"/>
      <point x="697" y="1142"/>
      <point x="771" y="1101"/>
      <point x="819" y="1037" type="curve"/>
      <point x="819" y="739" type="line"/>
    </contour>
  </outline>
</glyph>
<glyph name="emptyset" format="1">
  <advance width="1646"/>
  <unicode hex="2205"/>
  <outline>
    <contour>
      <point x="339" y="-78" type="line"/>
      <point x="494" y="95" type="line"/>
      <point x="588" y="25"/>
      <point x="705" y="-17"/>
      <point x="832" y="-17" type="curve" smooth="yes"/>
      <point x="1148" y="-17"/>
      <point x="1404" y="239"/>
      <point x="1404" y="555" type="curve" smooth="yes"/>
      <point x="1404" y="705"/>
      <point x="1346" y="840"/>
      <point x="1252" y="942" type="curve"/>
      <point x="1403" y="1110" type="line"/>
      <point x="1337" y="1168" type="line"/>
      <point x="1189" y="1002" type="line"/>
      <point x="1091" y="1080"/>
      <point x="966" y="1127"/>
      <point x="832" y="1127" type="curve" smooth="yes"/>
      <point x="516" y="1127"/>
      <point x="260" y="871"/>
      <point x="260" y="555" type="curve" smooth="yes"/>
      <point x="260" y="398"/>
      <point x="323" y="255"/>
      <point x="426" y="152" type="curve"/>
      <point x="273" y="-20" type="line"/>
    </contour>
    <contour>
      <point x="499" y="234" type="line"/>
      <point x="422" y="318"/>
      <point x="377" y="432"/>
      <point x="377" y="555" type="curve" smooth="yes"/>
      <point x="377" y="806"/>
      <point x="562" y="1019"/>
      <point x="832" y="1019" type="curve" smooth="yes"/>
      <point x="943" y="1019"/>
      <point x="1040" y="983"/>
      <point x="1116" y="922" type="curve"/>
    </contour>
    <contour>
      <point x="832" y="91" type="curve" smooth="yes"/>
      <point x="729" y="91"/>
      <point x="638" y="123"/>
      <point x="565" y="176" type="curve"/>
      <point x="1178" y="860" type="line"/>
      <point x="1247" y="778"/>
      <point x="1287" y="671"/>
      <point x="1287" y="555" type="curve" smooth="yes"/>
      <point x="1287" y="304"/>
      <point x="1101" y="91"/>
    </contour>
  </outline>
</glyph>
<glyph name="minus" format="1">
  <advance width="807"/>
  <unicode hex="2212"/>
  <outline>
    <contour>
      <point x="96" y="506" type="line"/>
      <point x="697" y="506" type="line"/>
      <point x="697" y="599" type="line"/>
      <point x="96" y="599" type="line"/>
    </contour>
  </outline>
</glyph>
<glyph name="notequal" format="1">
  <advance width="786"/>
  <unicode hex="2260"/>
  <outline>
    <contour>
      <point x="236" y="-95" type="line"/>
      <point x="374" y="330" type="line"/>
      <point x="694" y="330" type="line"/>
      <point x="694" y="421" type="line"/>
      <point x="404" y="421" type="line"/>
      <point x="463" y="603" type="line"/>
      <point x="694" y="603" type="line"/>
      <point x="694" y="693" type="line"/>
      <point x="492" y="693" type="line"/>
      <point x="620" y="1086" type="line"/>
      <point x="554" y="1112" type="line"/>
      <point x="418" y="693" type="line"/>
      <point x="102" y="693" type="line"/>
      <point x="102" y="603" type="line"/>
      <point x="387" y="603" type="line"/>
      <point x="329" y="421" type="line"/>
      <point x="102" y="421" type="line"/>
      <point x="102" y="330" type="line"/>
      <point x="299" y="330" type="line"/>
      <point x="171" y="-68" type="line"/>
    </contour>
  </outline>
</glyph>
<glyph name="greaterequal" format="1">
  <advance width="1340"/>
  <unicode hex="2265"/>
  <outline>
    <contour>
      <point x="290" y="365" type="line"/>
      <point x="1134" y="809" type="line"/>
      <point x="290" y="1253" type="line"/>
      <point x="233" y="1167" type="line"/>
      <point x="924" y="809" type="line"/>
      <point x="233" y="451" type="line"/>
    </contour>
    <contour>
      <point x="249" y="0" type="line"/>
      <point x="1095" y="0" type="line"/>
      <point x="1095" y="98" type="line"/>
      <point x="249" y="98" type="line"/>
    </contour>
  </outline>
</glyph>
<glyph name="uniFB00" format="1">
  <advance width="1452"/>
  <unicode hex="FB00"/>
  <outline>
    <contour>
      <point x="260" y="0" type="line"/>
      <point x="391" y="0" type="line"/>
      <point x="391" y="1009" type="line"/>
      <point x="910" y="1009" type="line"/>
      <point x="910" y="0" type="line"/>
      <point x="1040" y="0" type="line"/>
      <point x="1040" y="1009" type="line"/>
      <point x="1358" y="1009" type="line"/>
      <point x="1358" y="1097" type="line"/>
      <point x="1040" y="1097" type="line"/>
      <point x="1040" y="1159" type="line" smooth="yes"/>
      <point x="1040" y="1368"/>
      <point x="1102" y="1428"/>
      <point x="1212" y="1429" type="curve" smooth="yes"/>
      <point x="1260" y="1429"/>
      <point x="1322" y="1413"/>
      <point x="1366" y="1396" type="curve"/>
      <point x="1394" y="1486" type="line"/>
      <point x="1343" y="1508"/>
      <point x="1272" y="1527"/>
      <point x="1201" y="1528" type="curve" smooth="yes"/>
      <point x="1032" y="1530"/>
      <point x="910" y="1442"/>
      <point x="910" y="1163" type="curve" smooth="yes"/>
      <point x="910" y="1097" type="line"/>
      <point x="391" y="1097" type="line"/>
      <point x="391" y="1159" type="line" smooth="yes"/>
      <point x="391" y="1368"/>
      <point x="453" y="1428"/>
      <point x="562" y="1429" type="curve" smooth="yes"/>
      <point x="610" y="1429"/>
      <point x="673" y="1413"/>
      <point x="717" y="1396" type="curve"/>
      <point x="745" y="1486" type="line"/>
      <point x="693" y="1508"/>
      <point x="622" y="1527"/>
      <point x="552" y="1528" type="curve" smooth="yes"/>
      <point x="383" y="1530"/>
      <point x="260" y="1442"/>
      <point x="260" y="1163" type="curve" smooth="yes"/>
      <point x="260" y="1097" type="line"/>
      <point x="72" y="1097" type="line"/>
      <point x="72" y="1009" type="line"/>
      <point x="260" y="1009" type="line"/>
    </contour>
  </outline>
</glyph>
<glyph name="uniFB01" format="1">
  <advance width="1121"/>
  <unicode hex="FB01"/>
  <outline>
    <contour>
      <point x="207" y="0" type="line"/>
      <point x="340" y="0" type="line"/>
      <point x="340" y="1009" type="line"/>
      <point x="835" y="1009" type="line"/>
      <point x="835" y="0" type="line"/>
      <point x="964" y="0" type="line"/>
      <point x="964" y="1096" type="line"/>
      <point x="340" y="1096" type="line"/>
      <point x="340" y="1160" type="line" smooth="yes"/>
      <point x="340" y="1369"/>
      <point x="402" y="1429"/>
      <point x="511" y="1430" type="curve" smooth="yes"/>
      <point x="560" y="1430"/>
      <point x="622" y="1414"/>
      <point x="666" y="1397" type="curve"/>
      <point x="694" y="1487" type="line"/>
      <point x="642" y="1509"/>
      <point x="571" y="1528"/>
      <point x="501" y="1529" type="curve" smooth="yes"/>
      <point x="332" y="1531"/>
      <point x="207" y="1442"/>
      <point x="207" y="1164" type="curve" smooth="yes"/>
      <point x="207" y="1096" type="line"/>
      <point x="20" y="1096" type="line"/>
      <point x="20" y="1009" type="line"/>
      <point x="207" y="1009" type="line"/>
    </contour>
    <contour>
      <point x="902" y="1265" type="curve" smooth="yes"/>
      <point x="954" y="1265"/>
      <point x="985" y="1306"/>
      <point x="985" y="1352" type="curve" smooth="yes"/>
      <point x="985" y="1397"/>
      <point x="954" y="1438"/>
      <point x="902" y="1438" type="curve" smooth="yes"/>
      <point x="851" y="1438"/>
      <point x="818" y="1397"/>
      <point x="818" y="1352" type="curve" smooth="yes"/>
      <point x="818" y="1306"/>
      <point x="851" y="1265"/>
    </contour>
  </outline>
</glyph>
<glyph name="uniFB02" format="1">
  <advance width="1199"/>
  <unicode hex="FB02"/>
  <outline>
    <contour>
      <point x="229" y="0" type="line"/>
      <point x="363" y="0" type="line"/>
      <point x="363" y="1008" type="line"/>
      <point x="706" y="1008" type="line"/>
      <point x="706" y="1096" type="line"/>
      <point x="363" y="1096" type="line"/>
      <point x="363" y="1160" type="line"/>
      <point x="363" y="1358"/>
      <point x="466" y="1435"/>
      <point x="635" y="1435" type="curve" smooth="yes"/>
      <point x="709" y="1435"/>
      <point x="792" y="1421"/>
      <point x="882" y="1397" type="curve"/>
      <point x="882" y="0" type="line"/>
      <point x="1012" y="0" type="line"/>
      <point x="1012" y="1469" type="line"/>
      <point x="869" y="1512"/>
      <point x="737" y="1536"/>
      <point x="624" y="1536" type="curve" smooth="yes"/>
      <point x="379" y="1536"/>
      <point x="229" y="1424"/>
      <point x="229" y="1164" type="curve" smooth="yes"/>
      <point x="229" y="1096" type="line"/>
      <point x="43" y="1096" type="line"/>
      <point x="43" y="1008" type="line"/>
      <point x="229" y="1008" type="line"/>
    </contour>
  </outline>
</glyph>
<glyph name="caron.alt" format="1">
  <advance width="563"/>
  <outline>
    <contour>
      <point x="28" y="1097" type="move" name="_caron.alt"/>
    </contour>
    <component base="comma" xOffset="20" yOffset="1413"/>
  </outline>
</glyph>
<glyph name="fj" format="1">
  <advance width="1178"/>
  <outline>
    <contour>
      <point x="356" y="1096" type="line"/>
      <point x="356" y="1332"/>
      <point x="370" y="1439"/>
      <point x="519" y="1439" type="curve" smooth="yes"/>
      <point x="568" y="1439"/>
      <point x="625" y="1421"/>
      <point x="680" y="1390" type="curve"/>
      <point x="715" y="1478" type="line"/>
      <point x="645" y="1515"/>
      <point x="553" y="1539"/>
      <point x="487" y="1536" type="curve" smooth="yes"/>
      <point x="293" y="1529"/>
      <point x="223" y="1406"/>
      <point x="223" y="1096" type="curve"/>
      <point x="39" y="1096" type="line"/>
      <point x="39" y="1017" type="line"/>
      <point x="223" y="1017" type="line"/>
      <point x="223" y="0" type="line"/>
      <point x="356" y="0" type="line"/>
      <point x="356" y="1017" type="line"/>
      <point x="868" y="1017" type="line"/>
      <point x="868" y="129" type="line" smooth="yes"/>
      <point x="868" y="-106"/>
      <point x="858" y="-184"/>
      <point x="672" y="-268" type="curve"/>
      <point x="705" y="-359" type="line"/>
      <point x="942" y="-295"/>
      <point x="1001" y="-150"/>
      <point x="1001" y="119" type="curve" smooth="yes"/>
      <point x="1001" y="1096" type="line"/>
    </contour>
    <contour>
      <point x="935" y="1265" type="curve" smooth="yes"/>
      <point x="988" y="1265"/>
      <point x="1018" y="1306"/>
      <point x="1018" y="1352" type="curve" smooth="yes"/>
      <point x="1018" y="1397"/>
      <point x="988" y="1438"/>
      <point x="935" y="1438" type="curve" smooth="yes"/>
      <point x="884" y="1438"/>
      <point x="850" y="1397"/>
      <point x="850" y="1352" type="curve" smooth="yes"/>
      <point x="850" y="1306"/>
      <point x="884" y="1265"/>
    </contour>
  </outline>
</glyph>
